<svg id="Layer_1" data-name="Layer 1" xmlns="http://www.w3.org/2000/svg" viewBox="0 0 200 295"><defs><style>.cls-1{fill:#f4bb1b;}.cls-2{fill:#fff;}.cls-3{fill:none;stroke:#000;stroke-linecap:round;stroke-linejoin:round;stroke-width:3px;}.cls-4{fill:#373432;}</style></defs><title>beer-coupon</title><path class="cls-1" d="M60.77,209a7,7,0,0,1-1-.07l-.21,0c-.36-.11-35.78-11.2-39.95-12.38-5.47-1.54-5.87-6.37-6-8.19,0,0,0-.09,0-.13,0-4.72,12.29-41.07,24.28-76,1.56-4.56,2.69-7.86,3-8.79,1.16-3.61,6.18-7.34,11-11a71.09,71.09,0,0,0,6.58-5.27c3.62-3.52,13.69-27.89,17.26-37a1.5,1.5,0,0,1,1.84-.88L95.7,54.86a1.5,1.5,0,0,1,1,1.79c-2.3,9.44-8.22,35-7.93,40.07.13,2.25,1.43,5.36,2.82,8.65,2.17,5.17,4.41,10.51,3.26,14.86-1.48,5.6-23.28,80.73-26.51,85A9.48,9.48,0,0,1,60.77,209Z"/><path d="M77.11,50.68,95.25,56.3s-8.34,34.17-8,40.51c.35,6.08,7.86,16.48,6.12,23-2,7.73-23.36,80.65-26.25,84.46a7.9,7.9,0,0,1-6.38,3.17,5.54,5.54,0,0,1-.79,0S24.23,196.24,20,195s-4.76-4.81-4.93-6.87c.05-6.25,25.52-79.15,27.2-84.36C43.84,98.93,54.6,92.95,59.5,88.19c4.65-4.51,17.61-37.52,17.61-37.52m0-3a3,3,0,0,0-2.79,1.9C69,63,60.3,83.24,57.41,86A70.18,70.18,0,0,1,51,91.19c-5.27,3.93-10.26,7.63-11.57,11.7-.3.93-1.43,4.22-3,8.77C19.15,162,12.09,184.17,12.06,188.14q0,.13,0,.27c.16,1.9.63,7.69,7.1,9.51,4.15,1.17,39.55,12.25,39.91,12.36a3,3,0,0,0,.42.1,8.39,8.39,0,0,0,1.27.09,11,11,0,0,0,8.77-4.36c3.62-4.77,25.88-82.17,26.76-85.51,1.29-4.85-1.06-10.43-3.32-15.83-1.27-3-2.59-6.16-2.7-8.15C90,92.34,95,70,98.17,57a3,3,0,0,0-2-3.58L78,47.81a3,3,0,0,0-.89-.13Z"/><path d="M77.92,42l21,6.51-1.48,4.78-21-6.51L77.92,42m0-2A2,2,0,0,0,76,41.44l-1.48,4.78a2,2,0,0,0,1.32,2.5l21,6.51a2,2,0,0,0,2.5-1.32l1.48-4.78a2,2,0,0,0-1.32-2.5l-21-6.51a2,2,0,0,0-.59-.09Z"/><path class="cls-2" d="M53.26,175.92A15.23,15.23,0,0,1,49,175.3c-5.29-1.56-9.45-5.91-11.71-12.26-2.32-6.52-2.36-14.32-.12-22,3.92-13.33,14.08-23,24.17-23a15.23,15.23,0,0,1,4.29.61C76.71,122,82,137.31,77.44,152.92,73.52,166.25,63.35,175.92,53.26,175.92Z"/><path d="M61.31,116.58v3a13.72,13.72,0,0,1,3.87.55c4.82,1.42,8.63,5.44,10.72,11.32,2.22,6.22,2.25,13.7.09,21-3.73,12.7-13.29,21.92-22.73,21.92a13.72,13.72,0,0,1-3.87-.55c-4.82-1.42-8.63-5.44-10.72-11.32-2.22-6.22-2.25-13.7-.09-21,3.73-12.7,13.29-21.92,22.73-21.92v-3m0,0c-10.59,0-21.41,9.79-25.61,24.07-4.83,16.43.93,32.58,12.85,36.09a16.67,16.67,0,0,0,4.72.68c10.59,0,21.41-9.79,25.61-24.07,4.83-16.43-.93-32.58-12.85-36.09a16.67,16.67,0,0,0-4.72-.68Z"/><line class="cls-3" x1="95.88" y1="31.72" x2="78.69" y2="19.28"/><line class="cls-3" x1="113.07" y1="32.09" x2="125.5" y2="14.91"/><line class="cls-3" x1="103.2" y1="30.07" x2="101.37" y2="8.93"/><path class="cls-1" d="M139.23,209a9.48,9.48,0,0,1-7.57-3.77c-3.23-4.25-25-79.39-26.51-85-1.15-4.35,1.09-9.69,3.26-14.86,1.38-3.29,2.69-6.4,2.82-8.65.29-5-5.63-30.62-7.93-40.07a1.5,1.5,0,0,1,1-1.79l18.14-5.62a1.5,1.5,0,0,1,1.84.88c3.57,9.1,13.64,33.47,17.26,37a71.09,71.09,0,0,0,6.58,5.27c4.85,3.61,9.87,7.35,11,11,.3.94,1.43,4.23,3,8.79,12,34.94,24.24,71.3,24.28,76,0,0,0,.09,0,.13-.15,1.82-.54,6.65-6,8.19-4.17,1.18-39.59,12.27-39.95,12.38l-.21,0A7,7,0,0,1,139.23,209Z"/><path d="M122.89,50.68s13,33,17.61,37.52c4.9,4.75,15.66,10.74,17.24,15.61,1.68,5.21,27.15,78.11,27.2,84.36-.17,2.06-.64,5.66-4.93,6.87s-40,12.39-40,12.39a5.54,5.54,0,0,1-.79,0,7.9,7.9,0,0,1-6.38-3.17c-2.89-3.81-24.2-76.74-26.25-84.46-1.74-6.56,5.77-17,6.12-23,.36-6.34-8-40.51-8-40.51l18.14-5.62m0-3a3,3,0,0,0-.89.13l-18.14,5.62a3,3,0,0,0-2,3.58C105,70,110,92.34,109.73,96.63c-.11,2-1.43,5.12-2.7,8.15-2.27,5.4-4.61,11-3.32,15.83.88,3.34,23.14,80.73,26.76,85.51a11,11,0,0,0,8.77,4.36,8.39,8.39,0,0,0,1.27-.09,3,3,0,0,0,.42-.1c.36-.11,35.75-11.19,39.91-12.36,6.47-1.82,6.95-7.61,7.1-9.51q0-.13,0-.27c0-4-7.09-26.13-24.36-76.48-1.56-4.56-2.69-7.85-3-8.78-1.31-4.06-6.29-7.77-11.57-11.7A70.19,70.19,0,0,1,142.59,86c-2.89-2.8-11.62-23-16.91-36.46a3,3,0,0,0-2.79-1.9Z"/><path d="M122.08,42l1.48,4.78-21,6.51-1.48-4.78,21-6.51m0-2a2,2,0,0,0-.59.09l-21,6.51a2,2,0,0,0-1.32,2.5l1.48,4.78a2,2,0,0,0,2.5,1.32l21-6.51a2,2,0,0,0,1.32-2.5L124,41.44A2,2,0,0,0,122.08,40Z"/><path class="cls-2" d="M146.74,175.92c-10.09,0-20.26-9.67-24.17-23-4.58-15.61.72-31,11.83-34.22a15.23,15.23,0,0,1,4.29-.61c10.09,0,20.26,9.67,24.17,23,2.25,7.64,2.2,15.44-.12,22-2.26,6.35-6.42,10.71-11.71,12.26a15.23,15.23,0,0,1-4.29.61Z"/><path d="M138.69,119.58c9.44,0,19,9.22,22.73,21.92,2.16,7.34,2.12,14.81-.09,21-2.1,5.89-5.9,9.91-10.72,11.32a13.72,13.72,0,0,1-3.87.55c-9.44,0-19-9.22-22.73-21.92-2.16-7.34-2.12-14.81.09-21,2.1-5.89,5.9-9.91,10.72-11.32a13.72,13.72,0,0,1,3.87-.55m0-3a16.67,16.67,0,0,0-4.72.68c-11.92,3.5-17.67,19.66-12.85,36.09,4.2,14.29,15,24.07,25.61,24.07a16.67,16.67,0,0,0,4.72-.68c11.92-3.5,17.67-19.66,12.85-36.09-4.2-14.29-15-24.07-25.61-24.07Z"/><path class="cls-4" d="M63.95,238.74a6.22,6.22,0,0,1,4.65-1.87,6.26,6.26,0,0,1,5.52,2.5,5.45,5.45,0,0,1,1,2.82H72a4.3,4.3,0,0,0-.77-1.64A3.43,3.43,0,0,0,66,241a6.79,6.79,0,0,0-1,3.93,6,6,0,0,0,1,3.81A3.22,3.22,0,0,0,68.72,250a3,3,0,0,0,2.48-1.09,4.78,4.78,0,0,0,.78-1.75h3.14a6.81,6.81,0,0,1-2.07,4,6,6,0,0,1-4.28,1.55,6.42,6.42,0,0,1-5.07-2.09,9.91,9.91,0,0,1,.25-11.86Z"/><path class="cls-4" d="M85.46,241.16a3.28,3.28,0,0,1,1.38,1.1,2.93,2.93,0,0,1,.56,1.29,16,16,0,0,1,.1,2.16v6.57h-3v-6.81a3,3,0,0,0-.31-1.46,1.53,1.53,0,0,0-1.51-.78A2.07,2.07,0,0,0,81,244a3.57,3.57,0,0,0-.6,2.21v6.06H77.45V237.21h2.92v5.33a3.58,3.58,0,0,1,1.46-1.36,4.13,4.13,0,0,1,1.75-.38A4.73,4.73,0,0,1,85.46,241.16Z"/><path class="cls-4" d="M97.54,241.32A4.54,4.54,0,0,1,99.47,243a5.49,5.49,0,0,1,.89,2.31,14.27,14.27,0,0,1,.1,2.22H92.32a2.68,2.68,0,0,0,1.17,2.36,3,3,0,0,0,1.61.42A2.27,2.27,0,0,0,97.32,249h3a3.65,3.65,0,0,1-1.08,2,5.43,5.43,0,0,1-4.2,1.63,6.09,6.09,0,0,1-3.94-1.37q-1.71-1.38-1.71-4.48a6.05,6.05,0,0,1,1.54-4.45,5.39,5.39,0,0,1,4-1.55A6.36,6.36,0,0,1,97.54,241.32Zm-4.37,2.52a3,3,0,0,0-.78,1.73h5a2.44,2.44,0,0,0-.78-1.77,2.56,2.56,0,0,0-1.73-.6A2.32,2.32,0,0,0,93.17,243.85Z"/><path class="cls-4" d="M109.22,241.32a4.54,4.54,0,0,1,1.93,1.65,5.49,5.49,0,0,1,.89,2.31,14.27,14.27,0,0,1,.1,2.22H104a2.68,2.68,0,0,0,1.17,2.36,3,3,0,0,0,1.61.42A2.27,2.27,0,0,0,109,249h3a3.65,3.65,0,0,1-1.08,2,5.43,5.43,0,0,1-4.2,1.63,6.09,6.09,0,0,1-3.94-1.37q-1.71-1.38-1.71-4.48a6.05,6.05,0,0,1,1.54-4.45,5.39,5.39,0,0,1,4-1.55A6.36,6.36,0,0,1,109.22,241.32Zm-4.37,2.52a3,3,0,0,0-.78,1.73h5a2.44,2.44,0,0,0-.78-1.77,2.56,2.56,0,0,0-1.73-.6A2.32,2.32,0,0,0,104.85,243.85Z"/><path class="cls-4" d="M119.83,240.84l.25,0v3l-.49,0h-.35a2.42,2.42,0,0,0-2.37,1.15,4.47,4.47,0,0,0-.34,2v5.34h-2.94V241.1h2.79V243a6.18,6.18,0,0,1,1.18-1.53,3.21,3.21,0,0,1,2.13-.69Z"/><path class="cls-4" d="M124.06,248.71a2,2,0,0,0,.4,1.11,2.72,2.72,0,0,0,2,.58,3.09,3.09,0,0,0,1.38-.26.82.82,0,0,0,.51-.77.83.83,0,0,0-.41-.75,16.78,16.78,0,0,0-3.06-.88,6.35,6.35,0,0,1-2.68-1.18,2.56,2.56,0,0,1-.78-2,3.48,3.48,0,0,1,1.22-2.66,4.9,4.9,0,0,1,3.43-1.11,6.3,6.3,0,0,1,3.42.84A3.58,3.58,0,0,1,131,244.5h-2.92a1.72,1.72,0,0,0-.32-.89,2,2,0,0,0-1.65-.59,2.37,2.37,0,0,0-1.36.3.85.85,0,0,0-.41.7.76.76,0,0,0,.43.73,18.71,18.71,0,0,0,3.05.81,5.6,5.6,0,0,1,2.62,1.24,2.82,2.82,0,0,1,.86,2.1,3.39,3.39,0,0,1-1.24,2.71,7.44,7.44,0,0,1-7.73-.06,3.61,3.61,0,0,1-1.26-2.83Z"/><path class="cls-4" d="M134.41,237.21h3.21V241l-.83,7h-1.53l-.85-7Zm.07,12.1h3.07v3h-3.07Z"/><path class="cls-4" d="M49.57,259h1.59L54,263.86,56.93,259h1.6l-3.8,6v4H53.36v-4Z"/><path class="cls-4" d="M63.53,262.48a3.69,3.69,0,0,1,1,2.77,4.78,4.78,0,0,1-.86,2.92A3.08,3.08,0,0,1,61,269.33a3,3,0,0,1-2.38-1,4,4,0,0,1-.88-2.74,4.38,4.38,0,0,1,.93-2.94,3.11,3.11,0,0,1,2.5-1.09A3.28,3.28,0,0,1,63.53,262.48Zm-.76,4.87a4.65,4.65,0,0,0,.45-2.06,3.69,3.69,0,0,0-.32-1.67,1.82,1.82,0,0,0-1.77-1,1.74,1.74,0,0,0-1.62.86,4,4,0,0,0-.51,2.08,3.5,3.5,0,0,0,.51,1.95,1.78,1.78,0,0,0,1.61.78A1.67,1.67,0,0,0,62.77,267.35Z"/><path class="cls-4" d="M67.25,261.75v4.86a2.09,2.09,0,0,0,.17.92,1.2,1.2,0,0,0,1.19.66,1.69,1.69,0,0,0,1.7-1.15,4.67,4.67,0,0,0,.25-1.69v-3.6h1.23v7.32H70.63V268a2.47,2.47,0,0,1-.58.7,2.54,2.54,0,0,1-1.68.57,2.15,2.15,0,0,1-2.09-1,3.16,3.16,0,0,1-.3-1.5v-5Z"/><path class="cls-4" d="M74.06,262a.77.77,0,0,0,.58-.42,1.72,1.72,0,0,0,.2-.83s0-.06,0-.09a.47.47,0,0,0,0-.09h-.75V259h1.46v1.37a2.87,2.87,0,0,1-.36,1.49,1.4,1.4,0,0,1-1.1.7Z"/><path class="cls-4" d="M77.52,261.75l2,6,2-6h1.35l-2.76,7.32H78.79l-2.7-7.32Z"/><path class="cls-4" d="M88.43,262a2.77,2.77,0,0,1,1.11.95,3.28,3.28,0,0,1,.49,1.29,8.48,8.48,0,0,1,.11,1.61H84.81a3.16,3.16,0,0,0,.52,1.79,1.74,1.74,0,0,0,1.51.68,1.94,1.94,0,0,0,1.53-.64,2.18,2.18,0,0,0,.45-.86H90a2.54,2.54,0,0,1-.32.9,3.23,3.23,0,0,1-.6.81,2.84,2.84,0,0,1-1.38.74,4.17,4.17,0,0,1-1,.11,3.05,3.05,0,0,1-2.3-1,3.88,3.88,0,0,1-.94-2.79,4.22,4.22,0,0,1,1-2.86,3.13,3.13,0,0,1,2.49-1.1A3.3,3.3,0,0,1,88.43,262Zm.44,2.87a3.21,3.21,0,0,0-.35-1.28,1.77,1.77,0,0,0-1.67-.89,1.85,1.85,0,0,0-1.41.61,2.32,2.32,0,0,0-.6,1.56Z"/><path class="cls-4" d="M96.82,261.75v4.86a2.09,2.09,0,0,0,.17.92,1.2,1.2,0,0,0,1.19.66,1.69,1.69,0,0,0,1.7-1.15,4.67,4.67,0,0,0,.25-1.69v-3.6h1.23v7.32H100.2V268a2.47,2.47,0,0,1-.58.7,2.54,2.54,0,0,1-1.68.57,2.15,2.15,0,0,1-2.09-1,3.16,3.16,0,0,1-.3-1.5v-5Z"/><path class="cls-4" d="M103.37,261.75h1.17v1a3.28,3.28,0,0,1,1.1-.92,2.93,2.93,0,0,1,1.29-.28,2.13,2.13,0,0,1,2.11,1.09,3.86,3.86,0,0,1,.3,1.7v4.7h-1.25v-4.61a2.5,2.5,0,0,0-.2-1.08,1.2,1.2,0,0,0-1.19-.68,2.43,2.43,0,0,0-.72.09,1.85,1.85,0,0,0-.89.6,1.81,1.81,0,0,0-.4.75,5,5,0,0,0-.09,1.1v3.83h-1.23Z"/><path class="cls-4" d="M111.19,259h1.23v10h-1.23Z"/><path class="cls-4" d="M119.57,262.48a3.69,3.69,0,0,1,1,2.77,4.78,4.78,0,0,1-.86,2.92,3.08,3.08,0,0,1-2.65,1.15,3,3,0,0,1-2.38-1,4,4,0,0,1-.88-2.74,4.38,4.38,0,0,1,.93-2.94,3.11,3.11,0,0,1,2.5-1.09A3.28,3.28,0,0,1,119.57,262.48Zm-.76,4.87a4.65,4.65,0,0,0,.45-2.06,3.69,3.69,0,0,0-.32-1.67,1.82,1.82,0,0,0-1.77-1,1.74,1.74,0,0,0-1.62.86,4,4,0,0,0-.51,2.08,3.5,3.5,0,0,0,.51,1.95,1.78,1.78,0,0,0,1.61.78A1.67,1.67,0,0,0,118.81,267.35Z"/><path class="cls-4" d="M126.89,262.14a2.88,2.88,0,0,1,.93,2.07h-1.2a2.21,2.21,0,0,0-.5-1.12,1.58,1.58,0,0,0-1.25-.45,1.73,1.73,0,0,0-1.68,1.15,4.55,4.55,0,0,0-.33,1.84,3.45,3.45,0,0,0,.46,1.85,1.81,1.81,0,0,0,2.68.28,2.56,2.56,0,0,0,.62-1.28h1.2a2.89,2.89,0,0,1-3.12,2.8,2.8,2.8,0,0,1-2.29-1,4,4,0,0,1-.85-2.62,4.42,4.42,0,0,1,.94-3,3,3,0,0,1,2.39-1.07A3.19,3.19,0,0,1,126.89,262.14Z"/><path class="cls-4" d="M129,259h1.18v5.83l3.16-3.11h1.57l-2.81,2.72,3,4.6h-1.57l-2.3-3.73-1,1v2.75H129Z"/><path class="cls-4" d="M140.58,262a2.77,2.77,0,0,1,1.11.95,3.28,3.28,0,0,1,.49,1.29,8.48,8.48,0,0,1,.11,1.61H137a3.16,3.16,0,0,0,.52,1.79,1.74,1.74,0,0,0,1.51.68,1.94,1.94,0,0,0,1.53-.64,2.18,2.18,0,0,0,.45-.86h1.21a2.54,2.54,0,0,1-.32.9,3.23,3.23,0,0,1-.6.81,2.84,2.84,0,0,1-1.38.74,4.17,4.17,0,0,1-1,.11,3.05,3.05,0,0,1-2.3-1,3.88,3.88,0,0,1-.94-2.79,4.22,4.22,0,0,1,1-2.86,3.13,3.13,0,0,1,2.49-1.1A3.3,3.3,0,0,1,140.58,262Zm.44,2.87a3.21,3.21,0,0,0-.35-1.28,1.77,1.77,0,0,0-1.67-.89,1.85,1.85,0,0,0-1.41.61,2.32,2.32,0,0,0-.6,1.56Z"/><path class="cls-4" d="M147.86,262a3.3,3.3,0,0,1,.74.72V259h1.18v10.08h-1.11v-1a2.66,2.66,0,0,1-1,1,2.89,2.89,0,0,1-1.34.3,2.71,2.71,0,0,1-2.11-1,4,4,0,0,1-.89-2.74,4.74,4.74,0,0,1,.81-2.77,2.66,2.66,0,0,1,2.33-1.17A2.59,2.59,0,0,1,147.86,262Zm-2.75,5.49a1.74,1.74,0,0,0,1.59.79,1.67,1.67,0,0,0,1.4-.73,3.49,3.49,0,0,0,.55-2.11,3.13,3.13,0,0,0-.56-2.05,1.76,1.76,0,0,0-1.39-.67,1.84,1.84,0,0,0-1.5.71,3.27,3.27,0,0,0-.57,2.09A3.64,3.64,0,0,0,145.12,267.47Z"/><path class="cls-4" d="M65.92,278.94V278a5,5,0,0,0,1.86-.43,2.14,2.14,0,0,0,.79-1.44h1v9.75H68.23v-6.93Z"/><path class="cls-4" d="M77.74,276.32a1.88,1.88,0,0,1,1.66-.63h.24l.28,0v1.12l-.28,0h-.16q-.57,0-.68.29a5.69,5.69,0,0,0-.11,1.48h1.23v1H78.69v6.32H77.47v-6.32h-1v-1h1v-1.15A2.19,2.19,0,0,1,77.74,276.32Z"/><path class="cls-4" d="M81.08,278.55h1.17v1.26a2.79,2.79,0,0,1,.7-.9,1.83,1.83,0,0,1,1.29-.53h.12l.28,0v1.3l-.2,0h-.2a1.76,1.76,0,0,0-1.43.6,2.09,2.09,0,0,0-.5,1.38v4.21H81.08Z"/><path class="cls-4" d="M90.23,278.75a2.77,2.77,0,0,1,1.11.95,3.28,3.28,0,0,1,.49,1.29,8.48,8.48,0,0,1,.11,1.61H86.62a3.16,3.16,0,0,0,.52,1.79,1.74,1.74,0,0,0,1.51.68,1.94,1.94,0,0,0,1.53-.64,2.18,2.18,0,0,0,.45-.86h1.21a2.54,2.54,0,0,1-.32.9,3.23,3.23,0,0,1-.6.81,2.84,2.84,0,0,1-1.38.74,4.17,4.17,0,0,1-1,.11,3.05,3.05,0,0,1-2.3-1,3.88,3.88,0,0,1-.94-2.79,4.22,4.22,0,0,1,1-2.86,3.13,3.13,0,0,1,2.49-1.1A3.3,3.3,0,0,1,90.23,278.75Zm.44,2.87a3.21,3.21,0,0,0-.35-1.28,1.77,1.77,0,0,0-1.67-.89,1.85,1.85,0,0,0-1.41.61,2.32,2.32,0,0,0-.6,1.56Z"/><path class="cls-4" d="M98,278.75a2.77,2.77,0,0,1,1.11.95,3.28,3.28,0,0,1,.49,1.29,8.48,8.48,0,0,1,.11,1.61H94.4a3.16,3.16,0,0,0,.52,1.79,1.74,1.74,0,0,0,1.51.68,1.94,1.94,0,0,0,1.53-.64,2.18,2.18,0,0,0,.45-.86h1.21a2.54,2.54,0,0,1-.32.9,3.23,3.23,0,0,1-.6.81,2.84,2.84,0,0,1-1.38.74,4.17,4.17,0,0,1-1,.11,3.05,3.05,0,0,1-2.3-1,3.88,3.88,0,0,1-.94-2.79,4.22,4.22,0,0,1,1-2.86,3.13,3.13,0,0,1,2.49-1.1A3.3,3.3,0,0,1,98,278.75Zm.44,2.87a3.21,3.21,0,0,0-.35-1.28,1.77,1.77,0,0,0-1.67-.89,1.85,1.85,0,0,0-1.41.61,2.32,2.32,0,0,0-.6,1.56Z"/><path class="cls-4" d="M105.07,275.8h1.2v3.64a2.7,2.7,0,0,1,2.19-1.08,2.87,2.87,0,0,1,2.23.94,4,4,0,0,1,.85,2.77,4.74,4.74,0,0,1-.84,2.88,2.74,2.74,0,0,1-2.34,1.15,2.4,2.4,0,0,1-1.41-.4,3.4,3.4,0,0,1-.73-.77v.94h-1.13Zm4.71,8.43a3.9,3.9,0,0,0,.5-2.09,3.43,3.43,0,0,0-.5-1.91,1.64,1.64,0,0,0-1.46-.76,2,2,0,0,0-1.48.62,2.79,2.79,0,0,0-.63,2.05,4.52,4.52,0,0,0,.26,1.67,1.8,1.8,0,0,0,1.82,1.21A1.65,1.65,0,0,0,109.78,284.23Z"/><path class="cls-4" d="M117.48,278.75a2.77,2.77,0,0,1,1.11.95,3.28,3.28,0,0,1,.49,1.29,8.48,8.48,0,0,1,.11,1.61h-5.33a3.16,3.16,0,0,0,.52,1.79,1.74,1.74,0,0,0,1.51.68,1.94,1.94,0,0,0,1.53-.64,2.18,2.18,0,0,0,.45-.86h1.21a2.54,2.54,0,0,1-.32.9,3.23,3.23,0,0,1-.6.81,2.84,2.84,0,0,1-1.38.74,4.17,4.17,0,0,1-1,.11,3.05,3.05,0,0,1-2.3-1,3.88,3.88,0,0,1-.94-2.79,4.22,4.22,0,0,1,1-2.86,3.13,3.13,0,0,1,2.49-1.1A3.3,3.3,0,0,1,117.48,278.75Zm.44,2.87a3.21,3.21,0,0,0-.35-1.28,1.77,1.77,0,0,0-1.67-.89,1.85,1.85,0,0,0-1.41.61,2.32,2.32,0,0,0-.6,1.56Z"/><path class="cls-4" d="M125.27,278.75a2.77,2.77,0,0,1,1.11.95,3.28,3.28,0,0,1,.49,1.29,8.48,8.48,0,0,1,.11,1.61h-5.33a3.16,3.16,0,0,0,.52,1.79,1.74,1.74,0,0,0,1.51.68,1.94,1.94,0,0,0,1.53-.64,2.18,2.18,0,0,0,.45-.86h1.21a2.54,2.54,0,0,1-.32.9,3.23,3.23,0,0,1-.6.81,2.84,2.84,0,0,1-1.38.74,4.17,4.17,0,0,1-1,.11,3.05,3.05,0,0,1-2.3-1,3.88,3.88,0,0,1-.94-2.79,4.22,4.22,0,0,1,1-2.86,3.13,3.13,0,0,1,2.49-1.1A3.3,3.3,0,0,1,125.27,278.75Zm.44,2.87a3.21,3.21,0,0,0-.35-1.28,1.77,1.77,0,0,0-1.67-.89,1.85,1.85,0,0,0-1.41.61,2.32,2.32,0,0,0-.6,1.56Z"/><path class="cls-4" d="M128.57,278.55h1.17v1.26a2.79,2.79,0,0,1,.7-.9,1.83,1.83,0,0,1,1.29-.53h.12l.28,0v1.3l-.2,0h-.2a1.76,1.76,0,0,0-1.43.6,2.09,2.09,0,0,0-.5,1.38v4.21h-1.23Z"/><path class="cls-4" d="M132.72,284.38h1.43v1.49h-1.43Z"/></svg>