<svg id="Layer_1" data-name="Layer 1" xmlns="http://www.w3.org/2000/svg" viewBox="0 0 200 295"><defs><style>.cls-1{fill:#f4bb1b;}.cls-2{fill:#fff;}.cls-3{fill:none;stroke:#000;stroke-linecap:round;stroke-linejoin:round;stroke-width:3px;}.cls-4{fill:#373432;}</style></defs><title>beer-coupon</title><path class="cls-1" d="M60.77,209a7,7,0,0,1-1-.07l-.21,0c-.36-.11-35.78-11.2-39.95-12.38-5.47-1.54-5.87-6.37-6-8.19,0,0,0-.09,0-.13,0-4.72,12.29-41.07,24.28-76,1.56-4.56,2.69-7.86,3-8.79,1.16-3.61,6.18-7.34,11-11a71.09,71.09,0,0,0,6.58-5.27c3.62-3.52,13.69-27.89,17.26-37a1.5,1.5,0,0,1,1.84-.88L95.7,54.86a1.5,1.5,0,0,1,1,1.79c-2.3,9.44-8.22,35-7.93,40.07.13,2.25,1.43,5.36,2.82,8.65,2.17,5.17,4.41,10.51,3.26,14.86-1.48,5.6-23.28,80.73-26.51,85A9.48,9.48,0,0,1,60.77,209Z"/><path d="M77.11,50.68,95.25,56.3s-8.34,34.17-8,40.51c.35,6.08,7.86,16.48,6.12,23-2,7.73-23.36,80.65-26.25,84.46a7.9,7.9,0,0,1-6.38,3.17,5.54,5.54,0,0,1-.79,0S24.23,196.24,20,195s-4.76-4.81-4.93-6.87c.05-6.25,25.52-79.15,27.2-84.36C43.84,98.93,54.6,92.95,59.5,88.19c4.65-4.51,17.61-37.52,17.61-37.52m0-3a3,3,0,0,0-2.79,1.9C69,63,60.3,83.24,57.41,86A70.19,70.19,0,0,1,51,91.19c-5.27,3.93-10.26,7.63-11.57,11.7-.3.93-1.43,4.22-3,8.78C19.15,162,12.09,184.17,12.06,188.14q0,.13,0,.27c.16,1.9.63,7.69,7.1,9.51,4.15,1.17,39.55,12.25,39.91,12.36a3,3,0,0,0,.42.1,8.39,8.39,0,0,0,1.27.09,11,11,0,0,0,8.77-4.36c3.62-4.77,25.88-82.17,26.76-85.51,1.29-4.85-1.06-10.43-3.32-15.83-1.27-3-2.59-6.16-2.7-8.15C90,92.34,95,70,98.17,57a3,3,0,0,0-2-3.58L78,47.81a3,3,0,0,0-.89-.13Z"/><path d="M77.92,42l21,6.51-1.48,4.78-21-6.51L77.92,42m0-2A2,2,0,0,0,76,41.44l-1.48,4.78a2,2,0,0,0,1.32,2.5l21,6.51a2,2,0,0,0,2.5-1.32l1.48-4.78a2,2,0,0,0-1.32-2.5l-21-6.51a2,2,0,0,0-.59-.09Z"/><path class="cls-2" d="M53.26,175.92A15.23,15.23,0,0,1,49,175.3c-5.29-1.56-9.45-5.91-11.71-12.26-2.32-6.52-2.36-14.32-.12-22,3.92-13.33,14.08-23,24.17-23a15.23,15.23,0,0,1,4.29.61C76.71,122,82,137.31,77.44,152.92,73.52,166.25,63.35,175.92,53.26,175.92Z"/><path d="M61.31,116.58v3a13.72,13.72,0,0,1,3.87.55c4.82,1.42,8.63,5.44,10.72,11.32,2.22,6.22,2.25,13.7.09,21-3.73,12.7-13.29,21.92-22.73,21.92a13.72,13.72,0,0,1-3.87-.55c-4.82-1.42-8.63-5.44-10.72-11.32-2.22-6.22-2.25-13.7-.09-21,3.73-12.7,13.29-21.92,22.73-21.92v-3m0,0c-10.59,0-21.41,9.79-25.61,24.07-4.83,16.43.93,32.58,12.85,36.09a16.67,16.67,0,0,0,4.72.68c10.59,0,21.41-9.79,25.61-24.07,4.83-16.43-.93-32.58-12.85-36.09a16.67,16.67,0,0,0-4.72-.68Z"/><line class="cls-3" x1="95.88" y1="31.72" x2="78.69" y2="19.28"/><line class="cls-3" x1="113.07" y1="32.09" x2="125.5" y2="14.91"/><line class="cls-3" x1="103.2" y1="30.07" x2="101.37" y2="8.93"/><path class="cls-1" d="M139.23,209a9.48,9.48,0,0,1-7.57-3.77c-3.23-4.25-25-79.39-26.51-85-1.15-4.35,1.09-9.69,3.26-14.86,1.38-3.29,2.69-6.4,2.82-8.65.29-5-5.63-30.62-7.93-40.07a1.5,1.5,0,0,1,1-1.79l18.14-5.62a1.5,1.5,0,0,1,1.84.88c3.57,9.1,13.64,33.47,17.26,37a71.09,71.09,0,0,0,6.58,5.27c4.85,3.61,9.87,7.35,11,11,.3.94,1.43,4.23,3,8.79,12,34.94,24.24,71.3,24.28,76,0,0,0,.09,0,.13-.15,1.82-.54,6.65-6,8.19-4.17,1.18-39.59,12.27-39.95,12.38l-.21,0A7,7,0,0,1,139.23,209Z"/><path d="M122.89,50.68s13,33,17.61,37.52c4.9,4.75,15.66,10.74,17.24,15.61,1.68,5.21,27.15,78.11,27.2,84.36-.17,2.06-.64,5.66-4.93,6.87s-40,12.39-40,12.39a5.54,5.54,0,0,1-.79,0,7.9,7.9,0,0,1-6.38-3.17c-2.89-3.81-24.2-76.74-26.25-84.46-1.74-6.56,5.77-17,6.12-23,.36-6.34-8-40.51-8-40.51l18.14-5.62m0-3a3,3,0,0,0-.89.13l-18.14,5.62a3,3,0,0,0-2,3.58C105,70,110,92.34,109.73,96.63c-.11,2-1.43,5.12-2.7,8.15-2.27,5.4-4.61,11-3.32,15.83.88,3.34,23.14,80.73,26.76,85.51a11,11,0,0,0,8.77,4.36,8.39,8.39,0,0,0,1.27-.09,3,3,0,0,0,.42-.1c.36-.11,35.75-11.19,39.91-12.36,6.47-1.82,6.95-7.61,7.1-9.51q0-.13,0-.27c0-4-7.09-26.13-24.36-76.48-1.56-4.56-2.69-7.85-3-8.78-1.31-4.06-6.29-7.77-11.57-11.7A70.18,70.18,0,0,1,142.59,86c-2.89-2.8-11.62-23-16.91-36.46a3,3,0,0,0-2.79-1.9Z"/><path d="M122.08,42l1.48,4.78-21,6.51-1.48-4.78,21-6.51m0-2a2,2,0,0,0-.59.09l-21,6.51a2,2,0,0,0-1.32,2.5l1.48,4.78a2,2,0,0,0,2.5,1.32l21-6.51a2,2,0,0,0,1.32-2.5L124,41.44A2,2,0,0,0,122.08,40Z"/><path class="cls-2" d="M146.74,175.92c-10.09,0-20.26-9.67-24.17-23-4.58-15.61.72-31,11.83-34.22a15.23,15.23,0,0,1,4.29-.61c10.09,0,20.26,9.67,24.17,23,2.25,7.64,2.2,15.44-.12,22-2.26,6.35-6.42,10.71-11.71,12.26a15.23,15.23,0,0,1-4.29.61Z"/><path d="M138.69,119.58c9.44,0,19,9.22,22.73,21.92,2.16,7.34,2.12,14.81-.09,21-2.1,5.89-5.9,9.91-10.72,11.32a13.72,13.72,0,0,1-3.87.55c-9.44,0-19-9.22-22.73-21.92-2.16-7.34-2.12-14.81.09-21,2.1-5.89,5.9-9.91,10.72-11.32a13.72,13.72,0,0,1,3.87-.55m0-3a16.67,16.67,0,0,0-4.72.68c-11.92,3.5-17.67,19.66-12.85,36.09,4.2,14.29,15,24.07,25.61,24.07a16.67,16.67,0,0,0,4.72-.68c11.92-3.5,17.67-19.66,12.85-36.09-4.2-14.29-15-24.07-25.61-24.07Z"/><path class="cls-4" d="M63.95,229.74a6.22,6.22,0,0,1,4.65-1.87,6.26,6.26,0,0,1,5.52,2.5,5.45,5.45,0,0,1,1,2.82H72a4.3,4.3,0,0,0-.77-1.64A3.43,3.43,0,0,0,66,232a6.79,6.79,0,0,0-1,3.93,6,6,0,0,0,1,3.81A3.22,3.22,0,0,0,68.72,241a3,3,0,0,0,2.48-1.09,4.78,4.78,0,0,0,.78-1.75h3.14a6.81,6.81,0,0,1-2.07,4,6,6,0,0,1-4.28,1.55,6.42,6.42,0,0,1-5.07-2.09,9.91,9.91,0,0,1,.25-11.86Z"/><path class="cls-4" d="M85.46,232.16a3.28,3.28,0,0,1,1.38,1.1,2.93,2.93,0,0,1,.56,1.29,16,16,0,0,1,.1,2.16v6.57h-3v-6.81a3,3,0,0,0-.31-1.46,1.53,1.53,0,0,0-1.51-.78A2.07,2.07,0,0,0,81,235a3.57,3.57,0,0,0-.6,2.21v6.06H77.45V228.21h2.92v5.33a3.58,3.58,0,0,1,1.46-1.36,4.13,4.13,0,0,1,1.75-.38A4.73,4.73,0,0,1,85.46,232.16Z"/><path class="cls-4" d="M97.54,232.32A4.54,4.54,0,0,1,99.47,234a5.49,5.49,0,0,1,.89,2.31,14.27,14.27,0,0,1,.1,2.22H92.32a2.68,2.68,0,0,0,1.17,2.36,3,3,0,0,0,1.61.42A2.27,2.27,0,0,0,97.32,240h3a3.65,3.65,0,0,1-1.08,2,5.43,5.43,0,0,1-4.2,1.63,6.09,6.09,0,0,1-3.94-1.37q-1.71-1.38-1.71-4.48a6.05,6.05,0,0,1,1.54-4.45,5.39,5.39,0,0,1,4-1.55A6.36,6.36,0,0,1,97.54,232.32Zm-4.37,2.52a3,3,0,0,0-.78,1.73h5a2.44,2.44,0,0,0-.78-1.77,2.56,2.56,0,0,0-1.73-.6A2.32,2.32,0,0,0,93.17,234.85Z"/><path class="cls-4" d="M109.22,232.32a4.54,4.54,0,0,1,1.93,1.65,5.49,5.49,0,0,1,.89,2.31,14.27,14.27,0,0,1,.1,2.22H104a2.68,2.68,0,0,0,1.17,2.36,3,3,0,0,0,1.61.42A2.27,2.27,0,0,0,109,240h3a3.65,3.65,0,0,1-1.08,2,5.43,5.43,0,0,1-4.2,1.63,6.09,6.09,0,0,1-3.94-1.37q-1.71-1.38-1.71-4.48a6.05,6.05,0,0,1,1.54-4.45,5.39,5.39,0,0,1,4-1.55A6.36,6.36,0,0,1,109.22,232.32Zm-4.37,2.52a3,3,0,0,0-.78,1.73h5a2.44,2.44,0,0,0-.78-1.77,2.56,2.56,0,0,0-1.73-.6A2.32,2.32,0,0,0,104.85,234.85Z"/><path class="cls-4" d="M119.83,231.84l.25,0v3l-.49,0h-.35a2.42,2.42,0,0,0-2.37,1.15,4.47,4.47,0,0,0-.34,2v5.34h-2.94V232.1h2.79V234a6.18,6.18,0,0,1,1.18-1.53,3.21,3.21,0,0,1,2.13-.69Z"/><path class="cls-4" d="M124.06,239.71a2,2,0,0,0,.4,1.11,2.72,2.72,0,0,0,2,.58,3.09,3.09,0,0,0,1.38-.26.82.82,0,0,0,.51-.77.83.83,0,0,0-.41-.75,16.78,16.78,0,0,0-3.06-.88,6.35,6.35,0,0,1-2.68-1.18,2.56,2.56,0,0,1-.78-2,3.48,3.48,0,0,1,1.22-2.66,4.9,4.9,0,0,1,3.43-1.11,6.3,6.3,0,0,1,3.42.84A3.58,3.58,0,0,1,131,235.5h-2.92a1.72,1.72,0,0,0-.32-.89,2,2,0,0,0-1.65-.59,2.37,2.37,0,0,0-1.36.3.85.85,0,0,0-.41.7.76.76,0,0,0,.43.73,18.71,18.71,0,0,0,3.05.81,5.6,5.6,0,0,1,2.62,1.24,2.82,2.82,0,0,1,.86,2.1,3.39,3.39,0,0,1-1.24,2.71,7.44,7.44,0,0,1-7.73-.06,3.61,3.61,0,0,1-1.26-2.83Z"/><path class="cls-4" d="M134.41,228.21h3.21V232l-.83,7h-1.53l-.85-7Zm.07,12.1h3.07v3h-3.07Z"/><path class="cls-4" d="M25.25,249h2l-2.89,5.4v3.24H22.6v-3.24l-3-5.4h2.13l1.79,3.76Z"/><path class="cls-4" d="M32.63,256.89a3,3,0,0,1-2.46,1,3,3,0,0,1-2.46-1,4,4,0,0,1,0-4.8,3,3,0,0,1,2.46-1,3,3,0,0,1,2.46,1,4,4,0,0,1,0,4.8ZM31.3,256a3,3,0,0,0,0-3A1.48,1.48,0,0,0,29,253a3,3,0,0,0,0,3,1.48,1.48,0,0,0,2.25,0Z"/><path class="cls-4" d="M36.3,251.29v3.85a2,2,0,0,0,.13.82.89.89,0,0,0,.89.49,1.17,1.17,0,0,0,1.17-.69,2.52,2.52,0,0,0,.16-1v-3.47h1.69v6.39H38.72v-.9l-.12.18a1.17,1.17,0,0,1-.22.26,2.31,2.31,0,0,1-.76.48,2.57,2.57,0,0,1-.86.13,1.91,1.91,0,0,1-1.9-1,3.91,3.91,0,0,1-.27-1.66v-3.85Z"/><path class="cls-4" d="M42,251.74a1.31,1.31,0,0,0,.84-.62,1,1,0,0,0,.11-.52H42v-1.54h1.72v1.24a2.05,2.05,0,0,1-.44,1.39,2.12,2.12,0,0,1-1.25.66Z"/><path class="cls-4" d="M49.23,251.29H51l-2.31,6.39H47l-2.29-6.39h1.88L47.88,256Z"/><path class="cls-4" d="M56.14,251.42a2.6,2.6,0,0,1,1.1.94,3.14,3.14,0,0,1,.51,1.32,8.17,8.17,0,0,1,.05,1.27H53.15a1.53,1.53,0,0,0,.67,1.35,1.7,1.7,0,0,0,.92.24,1.41,1.41,0,0,0,.93-.29,1.4,1.4,0,0,0,.34-.44h1.71A2.09,2.09,0,0,1,57.1,257a3.1,3.1,0,0,1-2.4.93,3.48,3.48,0,0,1-2.25-.79,3.1,3.1,0,0,1-1-2.56,3.46,3.46,0,0,1,.88-2.54,3.08,3.08,0,0,1,2.28-.89A3.63,3.63,0,0,1,56.14,251.42Zm-2.5,1.44a1.74,1.74,0,0,0-.44,1h2.88a1.39,1.39,0,0,0-.44-1,1.46,1.46,0,0,0-1-.34A1.32,1.32,0,0,0,53.64,252.86Z"/><path class="cls-4" d="M63.65,251.29v3.85a2,2,0,0,0,.13.82.89.89,0,0,0,.89.49,1.17,1.17,0,0,0,1.17-.69,2.52,2.52,0,0,0,.16-1v-3.47h1.69v6.39H66.07v-.9l-.12.18a1.17,1.17,0,0,1-.22.26,2.31,2.31,0,0,1-.76.48,2.57,2.57,0,0,1-.86.13,1.91,1.91,0,0,1-1.9-1,3.91,3.91,0,0,1-.27-1.66v-3.85Z"/><path class="cls-4" d="M74.46,251.65a2.11,2.11,0,0,1,.63,1.72v4.3H73.38v-3.88a1.78,1.78,0,0,0-.13-.77.94.94,0,0,0-.93-.49,1.15,1.15,0,0,0-1.16.72,2.49,2.49,0,0,0-.16,1v3.46H69.32V251.3h1.62v.93a2.82,2.82,0,0,1,.61-.71,2.1,2.1,0,0,1,1.3-.39A2.45,2.45,0,0,1,74.46,251.65Z"/><path class="cls-4" d="M78.35,257.67H76.68V249h1.67Z"/><path class="cls-4" d="M85.3,256.89a3.52,3.52,0,0,1-4.91,0,4,4,0,0,1,0-4.8,3.48,3.48,0,0,1,4.91,0,4,4,0,0,1,0,4.8ZM84,256a3,3,0,0,0,0-3,1.48,1.48,0,0,0-2.25,0,3,3,0,0,0,0,3A1.48,1.48,0,0,0,84,256Z"/><path class="cls-4" d="M91.13,253.58a1.48,1.48,0,0,0-.24-.64,1,1,0,0,0-.87-.39,1.15,1.15,0,0,0-1.16.84,3.47,3.47,0,0,0-.16,1.18,3.19,3.19,0,0,0,.16,1.13,1.12,1.12,0,0,0,1.13.8,1,1,0,0,0,.83-.32,1.57,1.57,0,0,0,.3-.82h1.71a2.79,2.79,0,0,1-.55,1.44,2.68,2.68,0,0,1-2.33,1.1,2.72,2.72,0,0,1-2.27-.91,3.69,3.69,0,0,1-.73-2.37,3.74,3.74,0,0,1,.8-2.56,2.8,2.8,0,0,1,2.22-.91,3.34,3.34,0,0,1,2,.54,2.51,2.51,0,0,1,.91,1.9Z"/><path class="cls-4" d="M94,249.07H95.6v4.66l2.11-2.41h2.08L97.5,253.7l2.38,4h-2l-1.55-2.73-.69.72v2H94Z"/><path class="cls-4" d="M104.81,251.42a2.6,2.6,0,0,1,1.1.94,3.14,3.14,0,0,1,.51,1.32,8.17,8.17,0,0,1,.05,1.27h-4.65a1.53,1.53,0,0,0,.67,1.35,1.7,1.7,0,0,0,.92.24,1.41,1.41,0,0,0,.93-.29,1.4,1.4,0,0,0,.34-.44h1.71a2.09,2.09,0,0,1-.62,1.15,3.1,3.1,0,0,1-2.4.93,3.48,3.48,0,0,1-2.25-.79,3.1,3.1,0,0,1-1-2.56A3.46,3.46,0,0,1,101,252a3.08,3.08,0,0,1,2.28-.89A3.63,3.63,0,0,1,104.81,251.42Zm-2.5,1.44a1.74,1.74,0,0,0-.44,1h2.88a1.39,1.39,0,0,0-.44-1,1.46,1.46,0,0,0-1-.34A1.32,1.32,0,0,0,102.32,252.86Z"/><path class="cls-4" d="M110.71,251.39a2,2,0,0,1,.73.71v-3h1.69v8.63h-1.62v-.88a2.36,2.36,0,0,1-.81.83,2.29,2.29,0,0,1-1.14.26,2.37,2.37,0,0,1-1.88-.91,3.48,3.48,0,0,1-.76-2.32,4,4,0,0,1,.75-2.57,2.45,2.45,0,0,1,2-.94A2.06,2.06,0,0,1,110.71,251.39Zm.41,4.55a2.33,2.33,0,0,0,.37-1.37,2.09,2.09,0,0,0-.59-1.68,1.27,1.27,0,0,0-.84-.3,1.17,1.17,0,0,0-1.08.55,3,3,0,0,0,0,2.79,1.18,1.18,0,0,0,1.06.53A1.23,1.23,0,0,0,111.12,255.94Z"/><path class="cls-4" d="M118,251.81v-1.14a7.37,7.37,0,0,0,1.1-.11,1.56,1.56,0,0,0,.82-.45,1.47,1.47,0,0,0,.33-.61,1.4,1.4,0,0,0,.06-.34h1.39v8.5H120v-5.86Z"/><path class="cls-4" d="M130.64,249l.35,0v1.36l-.47,0a.54.54,0,0,0-.46.15.53.53,0,0,0-.13.34v.54H131v1.18h-1.1v5.15h-1.66v-5.15h-.94v-1.18h.91v-.41a2.16,2.16,0,0,1,.35-1.41q.36-.57,1.75-.57Z"/><path class="cls-4" d="M135.54,251.14h.14v1.71l-.28,0h-.2a1.39,1.39,0,0,0-1.35.66,2.55,2.55,0,0,0-.19,1.14v3.05H132v-6.39h1.59v1.11a3.53,3.53,0,0,1,.67-.87,1.83,1.83,0,0,1,1.22-.39Z"/><path class="cls-4" d="M140.83,251.42a2.6,2.6,0,0,1,1.1.94,3.14,3.14,0,0,1,.51,1.32,8.17,8.17,0,0,1,.05,1.27h-4.65a1.53,1.53,0,0,0,.67,1.35,1.7,1.7,0,0,0,.92.24,1.41,1.41,0,0,0,.93-.29,1.4,1.4,0,0,0,.34-.44h1.71a2.09,2.09,0,0,1-.62,1.15,3.1,3.1,0,0,1-2.4.93,3.48,3.48,0,0,1-2.25-.79,3.1,3.1,0,0,1-1-2.56A3.46,3.46,0,0,1,137,252a3.08,3.08,0,0,1,2.28-.89A3.63,3.63,0,0,1,140.83,251.42Zm-2.5,1.44a1.74,1.74,0,0,0-.44,1h2.88a1.39,1.39,0,0,0-.44-1,1.46,1.46,0,0,0-1-.34A1.32,1.32,0,0,0,138.33,252.86Z"/><path class="cls-4" d="M147.5,251.42a2.6,2.6,0,0,1,1.1.94,3.14,3.14,0,0,1,.51,1.32,8.17,8.17,0,0,1,.05,1.27h-4.65a1.53,1.53,0,0,0,.67,1.35,1.7,1.7,0,0,0,.92.24,1.41,1.41,0,0,0,.93-.29,1.4,1.4,0,0,0,.34-.44h1.71a2.09,2.09,0,0,1-.62,1.15,3.1,3.1,0,0,1-2.4.93,3.48,3.48,0,0,1-2.25-.79,3.1,3.1,0,0,1-1-2.56,3.46,3.46,0,0,1,.88-2.54,3.08,3.08,0,0,1,2.28-.89A3.63,3.63,0,0,1,147.5,251.42Zm-2.5,1.44a1.74,1.74,0,0,0-.44,1h2.88a1.39,1.39,0,0,0-.44-1,1.46,1.46,0,0,0-1-.34A1.32,1.32,0,0,0,145,252.86Z"/><path class="cls-4" d="M158.8,252.06a3.67,3.67,0,0,1,.72,2.34,4.11,4.11,0,0,1-.71,2.47,2.56,2.56,0,0,1-3.25.66,2.53,2.53,0,0,1-.62-.66v.8h-1.65V249H155v3.07a2.45,2.45,0,0,1,.7-.68,2.09,2.09,0,0,1,1.16-.29A2.39,2.39,0,0,1,158.8,252.06Zm-1.4,3.89a2.37,2.37,0,0,0,.36-1.37,3.07,3.07,0,0,0-.18-1.12,1.23,1.23,0,0,0-1.24-.84,1.25,1.25,0,0,0-1.26.83,3.08,3.08,0,0,0-.18,1.14,2.37,2.37,0,0,0,.37,1.36,1.26,1.26,0,0,0,1.12.54A1.16,1.16,0,0,0,157.4,255.95Z"/><path class="cls-4" d="M164.84,251.42a2.6,2.6,0,0,1,1.1.94,3.14,3.14,0,0,1,.51,1.32,8.17,8.17,0,0,1,.05,1.27h-4.65a1.53,1.53,0,0,0,.67,1.35,1.7,1.7,0,0,0,.92.24,1.41,1.41,0,0,0,.93-.29,1.4,1.4,0,0,0,.34-.44h1.71a2.09,2.09,0,0,1-.62,1.15,3.1,3.1,0,0,1-2.4.93,3.48,3.48,0,0,1-2.25-.79,3.1,3.1,0,0,1-1-2.56,3.46,3.46,0,0,1,.88-2.54,3.08,3.08,0,0,1,2.28-.89A3.63,3.63,0,0,1,164.84,251.42Zm-2.5,1.44a1.74,1.74,0,0,0-.44,1h2.88a1.39,1.39,0,0,0-.44-1,1.46,1.46,0,0,0-1-.34A1.32,1.32,0,0,0,162.34,252.86Z"/><path class="cls-4" d="M171.51,251.42a2.6,2.6,0,0,1,1.1.94,3.14,3.14,0,0,1,.51,1.32,8.17,8.17,0,0,1,.05,1.27h-4.65a1.53,1.53,0,0,0,.67,1.35,1.7,1.7,0,0,0,.92.24,1.41,1.41,0,0,0,.93-.29,1.4,1.4,0,0,0,.34-.44h1.71a2.09,2.09,0,0,1-.62,1.15,3.1,3.1,0,0,1-2.4.93,3.48,3.48,0,0,1-2.25-.79,3.1,3.1,0,0,1-1-2.56,3.46,3.46,0,0,1,.88-2.54,3.08,3.08,0,0,1,2.28-.89A3.63,3.63,0,0,1,171.51,251.42Zm-2.5,1.44a1.74,1.74,0,0,0-.44,1h2.88a1.39,1.39,0,0,0-.44-1,1.46,1.46,0,0,0-1-.34A1.32,1.32,0,0,0,169,252.86Z"/><path class="cls-4" d="M177.57,251.14h.14v1.71l-.28,0h-.2a1.39,1.39,0,0,0-1.35.66,2.55,2.55,0,0,0-.19,1.14v3.05H174v-6.39h1.59v1.11a3.53,3.53,0,0,1,.67-.87,1.83,1.83,0,0,1,1.22-.39Z"/><path class="cls-4" d="M178,255.92h1.78v1.75H178Z"/><path class="cls-4" d="M18.58,263a2.54,2.54,0,0,1,.83,1.63h-.95a1.8,1.8,0,0,0-2-1.5,2.11,2.11,0,0,0-1.68.75,3.44,3.44,0,0,0-.64,2.28,3.36,3.36,0,0,0,.58,2,2,2,0,0,0,1.72.78,1.81,1.81,0,0,0,1.61-.83,3.18,3.18,0,0,0,.44-1.14h.95a3.25,3.25,0,0,1-.83,1.9,2.94,2.94,0,0,1-2.28.92,3,3,0,0,1-2.08-.76,4.7,4.7,0,0,1-.28-5.7,3,3,0,0,1,2.48-1.1A2.88,2.88,0,0,1,18.58,263Z"/><path class="cls-4" d="M20.63,262.5h.88v7.17h-.88Z"/><path class="cls-4" d="M22.83,262.5h.89v1h-.89Zm0,2h.89v5.21h-.89Z"/><path class="cls-4" d="M28.51,264.72a2.06,2.06,0,0,1,.67,1.48h-.85a1.58,1.58,0,0,0-.36-.8,1.13,1.13,0,0,0-.89-.32,1.23,1.23,0,0,0-1.2.82,3.25,3.25,0,0,0-.23,1.31,2.47,2.47,0,0,0,.33,1.32,1.29,1.29,0,0,0,1.91.2,1.83,1.83,0,0,0,.44-.91h.85a2.07,2.07,0,0,1-2.23,2,2,2,0,0,1-1.64-.75,2.87,2.87,0,0,1-.61-1.87,3.16,3.16,0,0,1,.67-2.14,2.16,2.16,0,0,1,1.7-.77A2.28,2.28,0,0,1,28.51,264.72Z"/><path class="cls-4" d="M30,262.5h.84v4.16l2.25-2.22h1.12l-2,1.94,2.12,3.29H33.24L31.6,267l-.72.7v2H30Z"/><path class="cls-4" d="M38,263h.89v1.46h.83v.72h-.83v3.41a.37.37,0,0,0,.19.37.79.79,0,0,0,.34.05h.14l.17,0v.7l-.31.06-.35,0a1,1,0,0,1-.83-.31,1.4,1.4,0,0,1-.22-.82v-3.46H37.3v-.72H38Z"/><path class="cls-4" d="M40.61,262.48h.88v2.68a2.54,2.54,0,0,1,.56-.56,1.89,1.89,0,0,1,1.06-.28,1.57,1.57,0,0,1,1.54.8,2.71,2.71,0,0,1,.22,1.21v3.35H44v-3.3a1.84,1.84,0,0,0-.15-.84.94.94,0,0,0-.9-.43,1.5,1.5,0,0,0-1,.38,1.81,1.81,0,0,0-.44,1.42v2.77h-.88Z"/><path class="cls-4" d="M49.4,264.59a2,2,0,0,1,.79.68,2.34,2.34,0,0,1,.35.92,6.07,6.07,0,0,1,.08,1.15h-3.8a2.26,2.26,0,0,0,.37,1.28,1.24,1.24,0,0,0,1.08.48,1.39,1.39,0,0,0,1.09-.46,1.56,1.56,0,0,0,.32-.61h.86a1.83,1.83,0,0,1-.23.64,2.31,2.31,0,0,1-.43.58,2,2,0,0,1-1,.53,3,3,0,0,1-.71.08,2.18,2.18,0,0,1-1.65-.71,2.77,2.77,0,0,1-.67-2,3,3,0,0,1,.68-2,2.24,2.24,0,0,1,1.78-.79A2.36,2.36,0,0,1,49.4,264.59Zm.31,2.05a2.29,2.29,0,0,0-.25-.91,1.26,1.26,0,0,0-1.2-.63,1.32,1.32,0,0,0-1,.44,1.66,1.66,0,0,0-.43,1.11Z"/><path class="cls-4" d="M54.51,262.5h.89v1h-.89Zm0,2h.89v5.21h-.89Z"/><path class="cls-4" d="M56.73,264.44h.87v.74a2.92,2.92,0,0,1,.57-.56,1.7,1.7,0,0,1,1-.3,1.55,1.55,0,0,1,1,.31,1.61,1.61,0,0,1,.39.52,1.82,1.82,0,0,1,1.58-.83,1.45,1.45,0,0,1,1.44.76,2.49,2.49,0,0,1,.21,1.1v3.48h-.91V266a.85.85,0,0,0-.26-.72,1,1,0,0,0-.64-.2,1.27,1.27,0,0,0-.89.35,1.52,1.52,0,0,0-.37,1.16v3H59.8v-3.41a1.77,1.77,0,0,0-.13-.78.77.77,0,0,0-.75-.37,1.29,1.29,0,0,0-.91.39,1.89,1.89,0,0,0-.41,1.4v2.77h-.88Z"/><path class="cls-4" d="M67.86,266.51a.48.48,0,0,0,.41-.25.78.78,0,0,0,.06-.34.72.72,0,0,0-.32-.65,1.7,1.7,0,0,0-.91-.2,1.16,1.16,0,0,0-1,.37,1.24,1.24,0,0,0-.21.61h-.82a1.52,1.52,0,0,1,.63-1.35,2.57,2.57,0,0,1,1.4-.38,2.84,2.84,0,0,1,1.5.35,1.19,1.19,0,0,1,.57,1.09v3a.38.38,0,0,0,.06.22.27.27,0,0,0,.24.08h.13l.16,0v.65l-.31.07h-.29a.72.72,0,0,1-.66-.32,1.24,1.24,0,0,1-.15-.48,2.23,2.23,0,0,1-.77.61,2.39,2.39,0,0,1-1.11.26,1.65,1.65,0,0,1-1.19-.44,1.46,1.46,0,0,1-.46-1.1,1.42,1.42,0,0,1,.45-1.13,2.16,2.16,0,0,1,1.19-.49ZM66,268.88a1,1,0,0,0,.66.22,2,2,0,0,0,.9-.21,1.21,1.21,0,0,0,.73-1.17V267a1.51,1.51,0,0,1-.41.17,3.49,3.49,0,0,1-.5.1l-.53.07a2.06,2.06,0,0,0-.72.2.78.78,0,0,0-.41.73A.72.72,0,0,0,66,268.88Z"/><path class="cls-4" d="M73.53,264.65a2.4,2.4,0,0,1,.51.5v-.66h.81v4.76a3.52,3.52,0,0,1-.29,1.57,2.1,2.1,0,0,1-2.06,1.06,2.52,2.52,0,0,1-1.42-.38,1.48,1.48,0,0,1-.64-1.18h.89a1,1,0,0,0,.25.54,1.59,1.59,0,0,0,2.25-.42,4,4,0,0,0,.17-1.5,1.72,1.72,0,0,1-.63.6,2.26,2.26,0,0,1-2.46-.41,2.66,2.66,0,0,1-.63-2,3,3,0,0,1,.64-2.05,2,2,0,0,1,1.54-.74A1.89,1.89,0,0,1,73.53,264.65Zm.11.94a1.27,1.27,0,0,0-1-.47,1.25,1.25,0,0,0-1.26.87,3.43,3.43,0,0,0-.18,1.22,2.17,2.17,0,0,0,.36,1.35,1.15,1.15,0,0,0,1,.46,1.35,1.35,0,0,0,1.33-.85A2.77,2.77,0,0,0,74,267,2.19,2.19,0,0,0,73.64,265.6Z"/><path class="cls-4" d="M79.41,264.59a2,2,0,0,1,.79.68,2.34,2.34,0,0,1,.35.92,6.07,6.07,0,0,1,.08,1.15h-3.8a2.26,2.26,0,0,0,.37,1.28,1.24,1.24,0,0,0,1.08.48,1.39,1.39,0,0,0,1.09-.46,1.56,1.56,0,0,0,.32-.61h.86a1.83,1.83,0,0,1-.23.64,2.31,2.31,0,0,1-.43.58,2,2,0,0,1-1,.53,3,3,0,0,1-.71.08,2.18,2.18,0,0,1-1.65-.71,2.77,2.77,0,0,1-.67-2,3,3,0,0,1,.68-2,2.24,2.24,0,0,1,1.78-.79A2.36,2.36,0,0,1,79.41,264.59Zm.31,2.05a2.29,2.29,0,0,0-.25-.91,1.26,1.26,0,0,0-1.2-.63,1.32,1.32,0,0,0-1,.44,1.66,1.66,0,0,0-.43,1.11Z"/><path class="cls-4" d="M84.7,263h.89v1.46h.83v.72h-.83v3.41a.37.37,0,0,0,.19.37.79.79,0,0,0,.34.05h.14l.17,0v.7l-.31.06-.35,0a1,1,0,0,1-.83-.31,1.4,1.4,0,0,1-.22-.82v-3.46H84v-.72h.71Z"/><path class="cls-4" d="M91.09,265a2.64,2.64,0,0,1,.69,2,3.42,3.42,0,0,1-.61,2.09,2.21,2.21,0,0,1-1.9.82,2.13,2.13,0,0,1-1.7-.73,2.89,2.89,0,0,1-.63-2,3.13,3.13,0,0,1,.66-2.1,2.22,2.22,0,0,1,1.78-.78A2.34,2.34,0,0,1,91.09,265Zm-.55,3.48a3.32,3.32,0,0,0,.32-1.47,2.64,2.64,0,0,0-.23-1.19,1.3,1.3,0,0,0-1.26-.72,1.24,1.24,0,0,0-1.16.61,2.87,2.87,0,0,0-.36,1.48,2.49,2.49,0,0,0,.36,1.39,1.27,1.27,0,0,0,1.15.56A1.2,1.2,0,0,0,90.55,268.44Z"/><path class="cls-4" d="M95.67,264.44h.83v.9a2,2,0,0,1,.5-.64,1.3,1.3,0,0,1,.92-.38H98l.2,0v.93l-.14,0h-.14a1.25,1.25,0,0,0-1,.43,1.49,1.49,0,0,0-.36,1v3h-.88Z"/><path class="cls-4" d="M102.2,264.59a2,2,0,0,1,.79.68,2.34,2.34,0,0,1,.35.92,6.07,6.07,0,0,1,.08,1.15h-3.8a2.26,2.26,0,0,0,.37,1.28,1.24,1.24,0,0,0,1.08.48,1.39,1.39,0,0,0,1.09-.46,1.56,1.56,0,0,0,.32-.61h.86a1.83,1.83,0,0,1-.23.64,2.31,2.31,0,0,1-.43.58,2,2,0,0,1-1,.53,3,3,0,0,1-.71.08,2.18,2.18,0,0,1-1.65-.71,2.77,2.77,0,0,1-.67-2,3,3,0,0,1,.68-2,2.24,2.24,0,0,1,1.78-.79A2.36,2.36,0,0,1,102.2,264.59Zm.31,2.05a2.29,2.29,0,0,0-.25-.91,1.26,1.26,0,0,0-1.2-.63,1.32,1.32,0,0,0-1,.44,1.66,1.66,0,0,0-.43,1.11Z"/><path class="cls-4" d="M107.41,264.61a2.35,2.35,0,0,1,.53.51v-2.64h.84v7.2H108v-.73a1.9,1.9,0,0,1-.72.7,2.07,2.07,0,0,1-1,.21,1.94,1.94,0,0,1-1.51-.73,2.88,2.88,0,0,1-.64-2,3.39,3.39,0,0,1,.58-2,1.9,1.9,0,0,1,1.66-.84A1.85,1.85,0,0,1,107.41,264.61Zm-2,3.92a1.24,1.24,0,0,0,1.14.57,1.19,1.19,0,0,0,1-.52,2.49,2.49,0,0,0,.39-1.51,2.23,2.23,0,0,0-.4-1.47,1.25,1.25,0,0,0-1-.48,1.31,1.31,0,0,0-1.07.51,2.33,2.33,0,0,0-.41,1.49A2.6,2.6,0,0,0,105.44,268.53Z"/><path class="cls-4" d="M113.33,264.59a2,2,0,0,1,.79.68,2.34,2.34,0,0,1,.35.92,6.07,6.07,0,0,1,.08,1.15h-3.8a2.26,2.26,0,0,0,.37,1.28,1.24,1.24,0,0,0,1.08.48,1.39,1.39,0,0,0,1.09-.46,1.56,1.56,0,0,0,.32-.61h.86a1.83,1.83,0,0,1-.23.64,2.31,2.31,0,0,1-.43.58,2,2,0,0,1-1,.53,3,3,0,0,1-.71.08,2.18,2.18,0,0,1-1.65-.71,2.77,2.77,0,0,1-.67-2,3,3,0,0,1,.68-2,2.24,2.24,0,0,1,1.78-.79A2.36,2.36,0,0,1,113.33,264.59Zm.31,2.05a2.29,2.29,0,0,0-.25-.91,1.26,1.26,0,0,0-1.2-.63,1.32,1.32,0,0,0-1,.44,1.66,1.66,0,0,0-.43,1.11Z"/><path class="cls-4" d="M118.89,264.59a2,2,0,0,1,.79.68,2.34,2.34,0,0,1,.35.92,6.07,6.07,0,0,1,.08,1.15h-3.8a2.26,2.26,0,0,0,.37,1.28,1.24,1.24,0,0,0,1.08.48,1.39,1.39,0,0,0,1.09-.46,1.56,1.56,0,0,0,.32-.61H120a1.83,1.83,0,0,1-.23.64,2.31,2.31,0,0,1-.43.58,2,2,0,0,1-1,.53,3,3,0,0,1-.71.08,2.18,2.18,0,0,1-1.65-.71,2.77,2.77,0,0,1-.67-2,3,3,0,0,1,.68-2,2.24,2.24,0,0,1,1.78-.79A2.36,2.36,0,0,1,118.89,264.59Zm.31,2.05a2.29,2.29,0,0,0-.25-.91,1.26,1.26,0,0,0-1.2-.63,1.32,1.32,0,0,0-1,.44,1.66,1.66,0,0,0-.43,1.11Z"/><path class="cls-4" d="M121.22,264.44h.87v.74a2.92,2.92,0,0,1,.57-.56,1.7,1.7,0,0,1,1-.3,1.55,1.55,0,0,1,1,.31,1.61,1.61,0,0,1,.39.52,1.82,1.82,0,0,1,1.58-.83,1.45,1.45,0,0,1,1.44.76,2.49,2.49,0,0,1,.21,1.1v3.48h-.91V266a.85.85,0,0,0-.26-.72,1,1,0,0,0-.64-.2,1.27,1.27,0,0,0-.89.35,1.52,1.52,0,0,0-.37,1.16v3h-.89v-3.41a1.77,1.77,0,0,0-.13-.78.77.77,0,0,0-.75-.37,1.29,1.29,0,0,0-.91.39,1.89,1.89,0,0,0-.41,1.4v2.77h-.88Z"/><path class="cls-4" d="M135.6,264.44h1l-.83,2.3q-.48,1.35-.8,2.2a14.88,14.88,0,0,1-1.07,2.44,1.23,1.23,0,0,1-1.07.44h-.29l-.25-.05v-.8l.33.08h.18a.63.63,0,0,0,.36-.08.74.74,0,0,0,.19-.2s.07-.16.18-.4l.22-.54-1.93-5.38h1l1.4,4.26Z"/><path class="cls-4" d="M141.12,265a2.64,2.64,0,0,1,.69,2,3.42,3.42,0,0,1-.61,2.09,2.21,2.21,0,0,1-1.9.82,2.13,2.13,0,0,1-1.7-.73,2.89,2.89,0,0,1-.63-2,3.13,3.13,0,0,1,.66-2.1,2.22,2.22,0,0,1,1.78-.78A2.34,2.34,0,0,1,141.12,265Zm-.55,3.48a3.32,3.32,0,0,0,.32-1.47,2.64,2.64,0,0,0-.23-1.19,1.3,1.3,0,0,0-1.26-.72,1.24,1.24,0,0,0-1.16.61,2.87,2.87,0,0,0-.36,1.48,2.49,2.49,0,0,0,.36,1.39,1.27,1.27,0,0,0,1.15.56A1.2,1.2,0,0,0,140.57,268.44Z"/><path class="cls-4" d="M143.77,264.44v3.47a1.5,1.5,0,0,0,.12.65.86.86,0,0,0,.85.47,1.2,1.2,0,0,0,1.22-.82,3.34,3.34,0,0,0,.18-1.21v-2.57H147v5.23h-.83v-.77a1.76,1.76,0,0,1-.42.5,1.81,1.81,0,0,1-1.2.41,1.54,1.54,0,0,1-1.49-.75,2.26,2.26,0,0,1-.22-1.07v-3.55Z"/><path class="cls-4" d="M148.47,264.44h.83v.9a2,2,0,0,1,.5-.64,1.3,1.3,0,0,1,.92-.38h.08l.2,0v.93l-.14,0h-.14a1.25,1.25,0,0,0-1,.43,1.49,1.49,0,0,0-.36,1v3h-.88Z"/><path class="cls-4" d="M154.58,264.44h.83v.9a2,2,0,0,1,.5-.64,1.3,1.3,0,0,1,.92-.38h.08l.2,0v.93l-.14,0h-.14a1.25,1.25,0,0,0-1,.43,1.49,1.49,0,0,0-.36,1v3h-.88Z"/><path class="cls-4" d="M161.12,264.59a2,2,0,0,1,.79.68,2.34,2.34,0,0,1,.35.92,6.07,6.07,0,0,1,.08,1.15h-3.8a2.26,2.26,0,0,0,.37,1.28,1.24,1.24,0,0,0,1.08.48,1.39,1.39,0,0,0,1.09-.46,1.56,1.56,0,0,0,.32-.61h.86a1.83,1.83,0,0,1-.23.64,2.31,2.31,0,0,1-.43.58,2,2,0,0,1-1,.53,3,3,0,0,1-.71.08,2.18,2.18,0,0,1-1.65-.71,2.77,2.77,0,0,1-.67-2,3,3,0,0,1,.68-2,2.24,2.24,0,0,1,1.78-.79A2.36,2.36,0,0,1,161.12,264.59Zm.31,2.05a2.29,2.29,0,0,0-.25-.91,1.26,1.26,0,0,0-1.2-.63,1.32,1.32,0,0,0-1,.44,1.66,1.66,0,0,0-.43,1.11Z"/><path class="cls-4" d="M163.86,264.44l1,4.12,1-4.12h1l1,4.1,1.07-4.1h.88l-1.52,5.23h-.91l-1.06-4-1,4h-.91l-1.51-5.23Z"/><path class="cls-4" d="M173.47,266.51a.48.48,0,0,0,.41-.25.78.78,0,0,0,.06-.34.72.72,0,0,0-.32-.65,1.7,1.7,0,0,0-.91-.2,1.16,1.16,0,0,0-1,.37,1.24,1.24,0,0,0-.21.61h-.82a1.52,1.52,0,0,1,.63-1.35,2.57,2.57,0,0,1,1.4-.38,2.84,2.84,0,0,1,1.5.35,1.19,1.19,0,0,1,.57,1.09v3a.38.38,0,0,0,.06.22.27.27,0,0,0,.24.08h.13l.16,0v.65l-.31.07h-.29a.72.72,0,0,1-.66-.32A1.24,1.24,0,0,1,174,269a2.23,2.23,0,0,1-.77.61,2.39,2.39,0,0,1-1.11.26,1.65,1.65,0,0,1-1.19-.44,1.46,1.46,0,0,1-.46-1.1,1.42,1.42,0,0,1,.45-1.13,2.16,2.16,0,0,1,1.19-.49Zm-1.85,2.37a1,1,0,0,0,.66.22,2,2,0,0,0,.9-.21,1.21,1.21,0,0,0,.73-1.17V267a1.51,1.51,0,0,1-.41.17,3.49,3.49,0,0,1-.5.1l-.53.07a2.06,2.06,0,0,0-.72.2.78.78,0,0,0-.41.73A.72.72,0,0,0,171.62,268.88Z"/><path class="cls-4" d="M176.26,264.44h.83v.9a2,2,0,0,1,.5-.64,1.3,1.3,0,0,1,.92-.38h.08l.2,0v.93l-.14,0h-.14a1.25,1.25,0,0,0-1,.43,1.49,1.49,0,0,0-.36,1v3h-.88Z"/><path class="cls-4" d="M182.44,264.61a2.35,2.35,0,0,1,.53.51v-2.64h.84v7.2H183v-.73a1.9,1.9,0,0,1-.72.7,2.07,2.07,0,0,1-1,.21,1.94,1.94,0,0,1-1.51-.73,2.88,2.88,0,0,1-.64-2,3.39,3.39,0,0,1,.58-2,1.9,1.9,0,0,1,1.66-.84A1.85,1.85,0,0,1,182.44,264.61Zm-2,3.92a1.24,1.24,0,0,0,1.14.57,1.19,1.19,0,0,0,1-.52,2.49,2.49,0,0,0,.39-1.51,2.23,2.23,0,0,0-.4-1.47,1.25,1.25,0,0,0-1-.48,1.31,1.31,0,0,0-1.07.51,2.33,2.33,0,0,0-.41,1.49A2.6,2.6,0,0,0,180.47,268.53Z"/><path class="cls-4" d="M185.33,268.61h1v1.06h-1Z"/></svg>