<svg id="Layer_1" data-name="Layer 1" xmlns="http://www.w3.org/2000/svg" viewBox="0 0 200 295"><defs><style>.cls-1,.cls-2{fill:none;stroke:#000;stroke-linecap:round;stroke-linejoin:round;}.cls-1{stroke-width:2.15px;}.cls-2{stroke-width:2px;}</style></defs><title>beer-coupon</title><path d="M77.11,48.68,95.25,54.3s-8.34,34.17-8,40.51c.35,6.08,7.86,16.48,6.12,23-2,7.73-23.36,80.65-26.25,84.46a7.9,7.9,0,0,1-6.38,3.17,5.54,5.54,0,0,1-.79,0S24.23,194.24,20,193s-4.76-4.81-4.93-6.87c.05-6.25,25.52-79.15,27.2-84.36C43.84,96.93,54.6,90.95,59.5,86.19c4.65-4.51,17.61-37.52,17.61-37.52m0-3a3,3,0,0,0-2.79,1.9C69,61,60.3,81.24,57.41,84A70.18,70.18,0,0,1,51,89.19c-5.27,3.93-10.26,7.63-11.57,11.7-.3.93-1.43,4.22-3,8.77C19.15,160,12.09,182.17,12.06,186.14q0,.13,0,.27c.16,1.9.63,7.69,7.1,9.51,4.15,1.17,39.55,12.25,39.91,12.36a3,3,0,0,0,.42.1,8.39,8.39,0,0,0,1.27.09,11,11,0,0,0,8.77-4.36c3.62-4.77,25.88-82.17,26.76-85.51,1.29-4.85-1.06-10.43-3.32-15.83-1.27-3-2.59-6.16-2.7-8.15C90,90.34,95,68,98.17,55a3,3,0,0,0-2-3.58L78,45.81a3,3,0,0,0-.89-.13Z"/><path d="M77.92,40l21,6.51-1.48,4.78-21-6.51L77.92,40m0-2A2,2,0,0,0,76,39.44l-1.48,4.78a2,2,0,0,0,1.32,2.5l21,6.51a2,2,0,0,0,2.5-1.32l1.48-4.78a2,2,0,0,0-1.32-2.5l-21-6.51a2,2,0,0,0-.59-.09Z"/><ellipse class="cls-1" cx="57.29" cy="145" rx="31" ry="22.5" transform="translate(-97.98 159.09) rotate(-73.63)"/><line class="cls-2" x1="95.88" y1="29.72" x2="78.69" y2="17.28"/><line class="cls-2" x1="113.07" y1="30.09" x2="125.5" y2="12.91"/><line class="cls-2" x1="103.2" y1="28.07" x2="101.37" y2="6.93"/><path d="M122.89,48.68s13,33,17.61,37.52c4.9,4.75,15.66,10.74,17.24,15.61,1.68,5.21,27.15,78.11,27.2,84.36-.17,2.06-.64,5.66-4.93,6.87s-40,12.39-40,12.39a5.54,5.54,0,0,1-.79,0,7.9,7.9,0,0,1-6.38-3.17c-2.89-3.81-24.2-76.74-26.25-84.46-1.74-6.56,5.77-17,6.12-23,.36-6.34-8-40.51-8-40.51l18.14-5.62m0-3a3,3,0,0,0-.89.13l-18.14,5.62a3,3,0,0,0-2,3.58C105,68,110,90.34,109.73,94.63c-.11,2-1.43,5.12-2.7,8.15-2.27,5.4-4.61,11-3.32,15.83.88,3.34,23.14,80.73,26.76,85.51a11,11,0,0,0,8.77,4.36,8.39,8.39,0,0,0,1.27-.09,3,3,0,0,0,.42-.1c.36-.11,35.75-11.19,39.91-12.36,6.47-1.82,6.95-7.61,7.1-9.51q0-.13,0-.27c0-4-7.09-26.13-24.36-76.48-1.56-4.56-2.69-7.85-3-8.78-1.31-4.06-6.29-7.77-11.57-11.7A70.19,70.19,0,0,1,142.59,84c-2.89-2.8-11.62-23-16.91-36.46a3,3,0,0,0-2.79-1.9Z"/><path d="M122.08,40l1.48,4.78-21,6.51-1.48-4.78,21-6.51m0-2a2,2,0,0,0-.59.09l-21,6.51a2,2,0,0,0-1.32,2.5l1.48,4.78a2,2,0,0,0,2.5,1.32l21-6.51a2,2,0,0,0,1.32-2.5L124,39.44A2,2,0,0,0,122.08,38Z"/><ellipse class="cls-1" cx="142.71" cy="145" rx="22.5" ry="31" transform="translate(-35.09 46.11) rotate(-16.37)"/><path d="M63.95,236.74a6.22,6.22,0,0,1,4.65-1.87,6.26,6.26,0,0,1,5.52,2.5,5.45,5.45,0,0,1,1,2.82H72a4.3,4.3,0,0,0-.77-1.64A3.43,3.43,0,0,0,66,239a6.79,6.79,0,0,0-1,3.93,6,6,0,0,0,1,3.81A3.22,3.22,0,0,0,68.72,248a3,3,0,0,0,2.48-1.09,4.78,4.78,0,0,0,.78-1.75h3.14a6.81,6.81,0,0,1-2.07,4,6,6,0,0,1-4.28,1.55,6.42,6.42,0,0,1-5.07-2.09,9.91,9.91,0,0,1,.25-11.86Z"/><path d="M85.46,239.16a3.28,3.28,0,0,1,1.38,1.1,2.93,2.93,0,0,1,.56,1.29,16,16,0,0,1,.1,2.16v6.57h-3v-6.81a3,3,0,0,0-.31-1.46,1.53,1.53,0,0,0-1.51-.78A2.07,2.07,0,0,0,81,242a3.57,3.57,0,0,0-.6,2.21v6.06H77.45V235.21h2.92v5.33a3.58,3.58,0,0,1,1.46-1.36,4.13,4.13,0,0,1,1.75-.38A4.73,4.73,0,0,1,85.46,239.16Z"/><path d="M97.54,239.32A4.54,4.54,0,0,1,99.47,241a5.49,5.49,0,0,1,.89,2.31,14.27,14.27,0,0,1,.1,2.22H92.32a2.68,2.68,0,0,0,1.17,2.36,3,3,0,0,0,1.61.42A2.27,2.27,0,0,0,97.32,247h3a3.65,3.65,0,0,1-1.08,2,5.43,5.43,0,0,1-4.2,1.63,6.09,6.09,0,0,1-3.94-1.37q-1.71-1.38-1.71-4.48a6.05,6.05,0,0,1,1.54-4.45,5.39,5.39,0,0,1,4-1.55A6.36,6.36,0,0,1,97.54,239.32Zm-4.37,2.52a3,3,0,0,0-.78,1.73h5a2.44,2.44,0,0,0-.78-1.77,2.56,2.56,0,0,0-1.73-.6A2.32,2.32,0,0,0,93.17,241.85Z"/><path d="M109.22,239.32a4.54,4.54,0,0,1,1.93,1.65,5.49,5.49,0,0,1,.89,2.31,14.27,14.27,0,0,1,.1,2.22H104a2.68,2.68,0,0,0,1.17,2.36,3,3,0,0,0,1.61.42A2.27,2.27,0,0,0,109,247h3a3.65,3.65,0,0,1-1.08,2,5.43,5.43,0,0,1-4.2,1.63,6.09,6.09,0,0,1-3.94-1.37q-1.71-1.38-1.71-4.48a6.05,6.05,0,0,1,1.54-4.45,5.39,5.39,0,0,1,4-1.55A6.36,6.36,0,0,1,109.22,239.32Zm-4.37,2.52a3,3,0,0,0-.78,1.73h5a2.44,2.44,0,0,0-.78-1.77,2.56,2.56,0,0,0-1.73-.6A2.32,2.32,0,0,0,104.85,241.85Z"/><path d="M119.83,238.84l.25,0v3l-.49,0h-.35a2.42,2.42,0,0,0-2.37,1.15,4.47,4.47,0,0,0-.34,2v5.34h-2.94V239.1h2.79V241a6.18,6.18,0,0,1,1.18-1.53,3.21,3.21,0,0,1,2.13-.69Z"/><path d="M124.06,246.71a2,2,0,0,0,.4,1.11,2.72,2.72,0,0,0,2,.58,3.09,3.09,0,0,0,1.38-.26.82.82,0,0,0,.51-.77.83.83,0,0,0-.41-.75,16.78,16.78,0,0,0-3.06-.88,6.35,6.35,0,0,1-2.68-1.18,2.56,2.56,0,0,1-.78-2,3.48,3.48,0,0,1,1.22-2.66,4.9,4.9,0,0,1,3.43-1.11,6.3,6.3,0,0,1,3.42.84A3.58,3.58,0,0,1,131,242.5h-2.92a1.72,1.72,0,0,0-.32-.89,2,2,0,0,0-1.65-.59,2.37,2.37,0,0,0-1.36.3.85.85,0,0,0-.41.7.76.76,0,0,0,.43.73,18.71,18.71,0,0,0,3.05.81,5.6,5.6,0,0,1,2.62,1.24,2.82,2.82,0,0,1,.86,2.1,3.39,3.39,0,0,1-1.24,2.71,7.44,7.44,0,0,1-7.73-.06,3.61,3.61,0,0,1-1.26-2.83Z"/><path d="M134.41,235.21h3.21V239l-.83,7h-1.53l-.85-7Zm.07,12.1h3.07v3h-3.07Z"/><path d="M49.57,257h1.59L54,261.86,56.93,257h1.6l-3.8,6v4H53.36v-4Z"/><path d="M63.53,260.48a3.69,3.69,0,0,1,1,2.77,4.78,4.78,0,0,1-.86,2.92A3.08,3.08,0,0,1,61,267.33a3,3,0,0,1-2.38-1,4,4,0,0,1-.88-2.74,4.38,4.38,0,0,1,.93-2.94,3.11,3.11,0,0,1,2.5-1.09A3.28,3.28,0,0,1,63.53,260.48Zm-.76,4.87a4.65,4.65,0,0,0,.45-2.06,3.69,3.69,0,0,0-.32-1.67,1.82,1.82,0,0,0-1.77-1,1.74,1.74,0,0,0-1.62.86,4,4,0,0,0-.51,2.08,3.5,3.5,0,0,0,.51,1.95,1.78,1.78,0,0,0,1.61.78A1.67,1.67,0,0,0,62.77,265.35Z"/><path d="M67.25,259.75v4.86a2.09,2.09,0,0,0,.17.92,1.2,1.2,0,0,0,1.19.66,1.69,1.69,0,0,0,1.7-1.15,4.67,4.67,0,0,0,.25-1.69v-3.6h1.23v7.32H70.63V266a2.47,2.47,0,0,1-.58.7,2.54,2.54,0,0,1-1.68.57,2.15,2.15,0,0,1-2.09-1,3.16,3.16,0,0,1-.3-1.5v-5Z"/><path d="M74.06,260a.77.77,0,0,0,.58-.42,1.72,1.72,0,0,0,.2-.83s0-.06,0-.09a.47.47,0,0,0,0-.09h-.75V257h1.46v1.37a2.87,2.87,0,0,1-.36,1.49,1.4,1.4,0,0,1-1.1.7Z"/><path d="M77.52,259.75l2,6,2-6h1.35l-2.76,7.32H78.79l-2.7-7.32Z"/><path d="M88.43,260a2.77,2.77,0,0,1,1.11.95,3.28,3.28,0,0,1,.49,1.29,8.48,8.48,0,0,1,.11,1.61H84.81a3.16,3.16,0,0,0,.52,1.79,1.74,1.74,0,0,0,1.51.68,1.94,1.94,0,0,0,1.53-.64,2.18,2.18,0,0,0,.45-.86H90a2.54,2.54,0,0,1-.32.9,3.23,3.23,0,0,1-.6.81,2.84,2.84,0,0,1-1.38.74,4.17,4.17,0,0,1-1,.11,3.05,3.05,0,0,1-2.3-1,3.88,3.88,0,0,1-.94-2.79,4.22,4.22,0,0,1,1-2.86,3.13,3.13,0,0,1,2.49-1.1A3.3,3.3,0,0,1,88.43,260Zm.44,2.87a3.21,3.21,0,0,0-.35-1.28,1.77,1.77,0,0,0-1.67-.89,1.85,1.85,0,0,0-1.41.61,2.32,2.32,0,0,0-.6,1.56Z"/><path d="M96.82,259.75v4.86a2.09,2.09,0,0,0,.17.92,1.2,1.2,0,0,0,1.19.66,1.69,1.69,0,0,0,1.7-1.15,4.67,4.67,0,0,0,.25-1.69v-3.6h1.23v7.32H100.2V266a2.47,2.47,0,0,1-.58.7,2.54,2.54,0,0,1-1.68.57,2.15,2.15,0,0,1-2.09-1,3.16,3.16,0,0,1-.3-1.5v-5Z"/><path d="M103.37,259.75h1.17v1a3.28,3.28,0,0,1,1.1-.92,2.93,2.93,0,0,1,1.29-.28,2.13,2.13,0,0,1,2.11,1.09,3.86,3.86,0,0,1,.3,1.7v4.7h-1.25v-4.61a2.5,2.5,0,0,0-.2-1.08,1.2,1.2,0,0,0-1.19-.68,2.43,2.43,0,0,0-.72.09,1.85,1.85,0,0,0-.89.6,1.81,1.81,0,0,0-.4.75,5,5,0,0,0-.09,1.1v3.83h-1.23Z"/><path d="M111.19,257h1.23v10h-1.23Z"/><path d="M119.57,260.48a3.69,3.69,0,0,1,1,2.77,4.78,4.78,0,0,1-.86,2.92,3.08,3.08,0,0,1-2.65,1.15,3,3,0,0,1-2.38-1,4,4,0,0,1-.88-2.74,4.38,4.38,0,0,1,.93-2.94,3.11,3.11,0,0,1,2.5-1.09A3.28,3.28,0,0,1,119.57,260.48Zm-.76,4.87a4.65,4.65,0,0,0,.45-2.06,3.69,3.69,0,0,0-.32-1.67,1.82,1.82,0,0,0-1.77-1,1.74,1.74,0,0,0-1.62.86,4,4,0,0,0-.51,2.08,3.5,3.5,0,0,0,.51,1.95,1.78,1.78,0,0,0,1.61.78A1.67,1.67,0,0,0,118.81,265.35Z"/><path d="M126.89,260.14a2.88,2.88,0,0,1,.93,2.07h-1.2a2.21,2.21,0,0,0-.5-1.12,1.58,1.58,0,0,0-1.25-.45,1.73,1.73,0,0,0-1.68,1.15,4.55,4.55,0,0,0-.33,1.84,3.45,3.45,0,0,0,.46,1.85,1.81,1.81,0,0,0,2.68.28,2.56,2.56,0,0,0,.62-1.28h1.2a2.89,2.89,0,0,1-3.12,2.8,2.8,2.8,0,0,1-2.29-1,4,4,0,0,1-.85-2.62,4.42,4.42,0,0,1,.94-3,3,3,0,0,1,2.39-1.07A3.19,3.19,0,0,1,126.89,260.14Z"/><path d="M129,257h1.18v5.83l3.16-3.11h1.57l-2.81,2.72,3,4.6h-1.57l-2.3-3.73-1,1v2.75H129Z"/><path d="M140.58,260a2.77,2.77,0,0,1,1.11.95,3.28,3.28,0,0,1,.49,1.29,8.48,8.48,0,0,1,.11,1.61H137a3.16,3.16,0,0,0,.52,1.79,1.74,1.74,0,0,0,1.51.68,1.94,1.94,0,0,0,1.53-.64,2.18,2.18,0,0,0,.45-.86h1.21a2.54,2.54,0,0,1-.32.9,3.23,3.23,0,0,1-.6.81,2.84,2.84,0,0,1-1.38.74,4.17,4.17,0,0,1-1,.11,3.05,3.05,0,0,1-2.3-1,3.88,3.88,0,0,1-.94-2.79,4.22,4.22,0,0,1,1-2.86,3.13,3.13,0,0,1,2.49-1.1A3.3,3.3,0,0,1,140.58,260Zm.44,2.87a3.21,3.21,0,0,0-.35-1.28,1.77,1.77,0,0,0-1.67-.89,1.85,1.85,0,0,0-1.41.61,2.32,2.32,0,0,0-.6,1.56Z"/><path d="M147.86,260a3.3,3.3,0,0,1,.74.72V257h1.18v10.08h-1.11v-1a2.66,2.66,0,0,1-1,1,2.89,2.89,0,0,1-1.34.3,2.71,2.71,0,0,1-2.11-1,4,4,0,0,1-.89-2.74,4.74,4.74,0,0,1,.81-2.77,2.66,2.66,0,0,1,2.33-1.17A2.59,2.59,0,0,1,147.86,260Zm-2.75,5.49a1.74,1.74,0,0,0,1.59.79,1.67,1.67,0,0,0,1.4-.73,3.49,3.49,0,0,0,.55-2.11,3.13,3.13,0,0,0-.56-2.05,1.76,1.76,0,0,0-1.39-.67,1.84,1.84,0,0,0-1.5.71,3.27,3.27,0,0,0-.57,2.09A3.64,3.64,0,0,0,145.12,265.47Z"/><path d="M65.92,276.94V276a5,5,0,0,0,1.86-.43,2.14,2.14,0,0,0,.79-1.44h1v9.75H68.23v-6.93Z"/><path d="M77.74,274.32a1.88,1.88,0,0,1,1.66-.63h.24l.28,0v1.12l-.28,0h-.16q-.57,0-.68.29a5.69,5.69,0,0,0-.11,1.48h1.23v1H78.69v6.32H77.47v-6.32h-1v-1h1v-1.15A2.19,2.19,0,0,1,77.74,274.32Z"/><path d="M81.08,276.55h1.17v1.26a2.79,2.79,0,0,1,.7-.9,1.83,1.83,0,0,1,1.29-.53h.12l.28,0v1.3l-.2,0h-.2a1.76,1.76,0,0,0-1.43.6,2.09,2.09,0,0,0-.5,1.38v4.21H81.08Z"/><path d="M90.23,276.75a2.77,2.77,0,0,1,1.11.95,3.28,3.28,0,0,1,.49,1.29,8.48,8.48,0,0,1,.11,1.61H86.62a3.16,3.16,0,0,0,.52,1.79,1.74,1.74,0,0,0,1.51.68,1.94,1.94,0,0,0,1.53-.64,2.18,2.18,0,0,0,.45-.86h1.21a2.54,2.54,0,0,1-.32.9,3.23,3.23,0,0,1-.6.81,2.84,2.84,0,0,1-1.38.74,4.17,4.17,0,0,1-1,.11,3.05,3.05,0,0,1-2.3-1,3.88,3.88,0,0,1-.94-2.79,4.22,4.22,0,0,1,1-2.86,3.13,3.13,0,0,1,2.49-1.1A3.3,3.3,0,0,1,90.23,276.75Zm.44,2.87a3.21,3.21,0,0,0-.35-1.28,1.77,1.77,0,0,0-1.67-.89,1.85,1.85,0,0,0-1.41.61,2.32,2.32,0,0,0-.6,1.56Z"/><path d="M98,276.75a2.77,2.77,0,0,1,1.11.95,3.28,3.28,0,0,1,.49,1.29,8.48,8.48,0,0,1,.11,1.61H94.4a3.16,3.16,0,0,0,.52,1.79,1.74,1.74,0,0,0,1.51.68,1.94,1.94,0,0,0,1.53-.64,2.18,2.18,0,0,0,.45-.86h1.21a2.54,2.54,0,0,1-.32.9,3.23,3.23,0,0,1-.6.81,2.84,2.84,0,0,1-1.38.74,4.17,4.17,0,0,1-1,.11,3.05,3.05,0,0,1-2.3-1,3.88,3.88,0,0,1-.94-2.79,4.22,4.22,0,0,1,1-2.86,3.13,3.13,0,0,1,2.49-1.1A3.3,3.3,0,0,1,98,276.75Zm.44,2.87a3.21,3.21,0,0,0-.35-1.28,1.77,1.77,0,0,0-1.67-.89,1.85,1.85,0,0,0-1.41.61,2.32,2.32,0,0,0-.6,1.56Z"/><path d="M105.07,273.8h1.2v3.64a2.7,2.7,0,0,1,2.19-1.08,2.87,2.87,0,0,1,2.23.94,4,4,0,0,1,.85,2.77,4.74,4.74,0,0,1-.84,2.88,2.74,2.74,0,0,1-2.34,1.15,2.4,2.4,0,0,1-1.41-.4,3.4,3.4,0,0,1-.73-.77v.94h-1.13Zm4.71,8.43a3.9,3.9,0,0,0,.5-2.09,3.43,3.43,0,0,0-.5-1.91,1.64,1.64,0,0,0-1.46-.76,2,2,0,0,0-1.48.62,2.79,2.79,0,0,0-.63,2.05,4.52,4.52,0,0,0,.26,1.67,1.8,1.8,0,0,0,1.82,1.21A1.65,1.65,0,0,0,109.78,282.23Z"/><path d="M117.48,276.75a2.77,2.77,0,0,1,1.11.95,3.28,3.28,0,0,1,.49,1.29,8.48,8.48,0,0,1,.11,1.61h-5.33a3.16,3.16,0,0,0,.52,1.79,1.74,1.74,0,0,0,1.51.68,1.94,1.94,0,0,0,1.53-.64,2.18,2.18,0,0,0,.45-.86h1.21a2.54,2.54,0,0,1-.32.9,3.23,3.23,0,0,1-.6.81,2.84,2.84,0,0,1-1.38.74,4.17,4.17,0,0,1-1,.11,3.05,3.05,0,0,1-2.3-1,3.88,3.88,0,0,1-.94-2.79,4.22,4.22,0,0,1,1-2.86,3.13,3.13,0,0,1,2.49-1.1A3.3,3.3,0,0,1,117.48,276.75Zm.44,2.87a3.21,3.21,0,0,0-.35-1.28,1.77,1.77,0,0,0-1.67-.89,1.85,1.85,0,0,0-1.41.61,2.32,2.32,0,0,0-.6,1.56Z"/><path d="M125.27,276.75a2.77,2.77,0,0,1,1.11.95,3.28,3.28,0,0,1,.49,1.29,8.48,8.48,0,0,1,.11,1.61h-5.33a3.16,3.16,0,0,0,.52,1.79,1.74,1.74,0,0,0,1.51.68,1.94,1.94,0,0,0,1.53-.64,2.18,2.18,0,0,0,.45-.86h1.21a2.54,2.54,0,0,1-.32.9,3.23,3.23,0,0,1-.6.81,2.84,2.84,0,0,1-1.38.74,4.17,4.17,0,0,1-1,.11,3.05,3.05,0,0,1-2.3-1,3.88,3.88,0,0,1-.94-2.79,4.22,4.22,0,0,1,1-2.86,3.13,3.13,0,0,1,2.49-1.1A3.3,3.3,0,0,1,125.27,276.75Zm.44,2.87a3.21,3.21,0,0,0-.35-1.28,1.77,1.77,0,0,0-1.67-.89,1.85,1.85,0,0,0-1.41.61,2.32,2.32,0,0,0-.6,1.56Z"/><path d="M128.57,276.55h1.17v1.26a2.79,2.79,0,0,1,.7-.9,1.83,1.83,0,0,1,1.29-.53h.12l.28,0v1.3l-.2,0h-.2a1.76,1.76,0,0,0-1.43.6,2.09,2.09,0,0,0-.5,1.38v4.21h-1.23Z"/><path d="M132.72,282.38h1.43v1.49h-1.43Z"/></svg>