<svg id="Layer_1" data-name="Layer 1" xmlns="http://www.w3.org/2000/svg" viewBox="0 0 200 295"><defs><style>.cls-1{fill:#373432;}</style></defs><title>qr-coupon</title><path class="cls-1" d="M63.95,229.74a6.22,6.22,0,0,1,4.65-1.87,6.26,6.26,0,0,1,5.52,2.5,5.45,5.45,0,0,1,1,2.82H72a4.3,4.3,0,0,0-.77-1.64A3.43,3.43,0,0,0,66,232a6.79,6.79,0,0,0-1,3.93,6,6,0,0,0,1,3.81A3.22,3.22,0,0,0,68.72,241a3,3,0,0,0,2.48-1.09,4.78,4.78,0,0,0,.78-1.75h3.14a6.81,6.81,0,0,1-2.07,4,6,6,0,0,1-4.28,1.55,6.42,6.42,0,0,1-5.07-2.09,9.91,9.91,0,0,1,.25-11.86Z"/><path class="cls-1" d="M85.46,232.16a3.28,3.28,0,0,1,1.38,1.1,2.93,2.93,0,0,1,.56,1.29,16,16,0,0,1,.1,2.16v6.57h-3v-6.81a3,3,0,0,0-.31-1.46,1.53,1.53,0,0,0-1.51-.78A2.07,2.07,0,0,0,81,235a3.57,3.57,0,0,0-.6,2.21v6.06H77.45V228.21h2.92v5.33a3.58,3.58,0,0,1,1.46-1.36,4.13,4.13,0,0,1,1.75-.38A4.73,4.73,0,0,1,85.46,232.16Z"/><path class="cls-1" d="M97.54,232.32A4.54,4.54,0,0,1,99.47,234a5.49,5.49,0,0,1,.89,2.31,14.27,14.27,0,0,1,.1,2.22H92.32a2.68,2.68,0,0,0,1.17,2.36,3,3,0,0,0,1.61.42A2.27,2.27,0,0,0,97.32,240h3a3.65,3.65,0,0,1-1.08,2,5.43,5.43,0,0,1-4.2,1.63,6.09,6.09,0,0,1-3.94-1.37q-1.71-1.38-1.71-4.48a6.05,6.05,0,0,1,1.54-4.45,5.39,5.39,0,0,1,4-1.55A6.36,6.36,0,0,1,97.54,232.32Zm-4.37,2.52a3,3,0,0,0-.78,1.73h5a2.44,2.44,0,0,0-.78-1.77,2.56,2.56,0,0,0-1.73-.6A2.32,2.32,0,0,0,93.17,234.85Z"/><path class="cls-1" d="M109.22,232.32a4.54,4.54,0,0,1,1.93,1.65,5.49,5.49,0,0,1,.89,2.31,14.27,14.27,0,0,1,.1,2.22H104a2.68,2.68,0,0,0,1.17,2.36,3,3,0,0,0,1.61.42A2.27,2.27,0,0,0,109,240h3a3.65,3.65,0,0,1-1.08,2,5.43,5.43,0,0,1-4.2,1.63,6.09,6.09,0,0,1-3.94-1.37q-1.71-1.38-1.71-4.48a6.05,6.05,0,0,1,1.54-4.45,5.39,5.39,0,0,1,4-1.55A6.36,6.36,0,0,1,109.22,232.32Zm-4.37,2.52a3,3,0,0,0-.78,1.73h5a2.44,2.44,0,0,0-.78-1.77,2.56,2.56,0,0,0-1.73-.6A2.32,2.32,0,0,0,104.85,234.85Z"/><path class="cls-1" d="M119.83,231.84l.25,0v3l-.49,0h-.35a2.42,2.42,0,0,0-2.37,1.15,4.47,4.47,0,0,0-.34,2v5.34h-2.94V232.1h2.79V234a6.18,6.18,0,0,1,1.18-1.53,3.21,3.21,0,0,1,2.13-.69Z"/><path class="cls-1" d="M124.06,239.71a2,2,0,0,0,.4,1.11,2.72,2.72,0,0,0,2,.58,3.09,3.09,0,0,0,1.38-.26.82.82,0,0,0,.51-.77.83.83,0,0,0-.41-.75,16.78,16.78,0,0,0-3.06-.88,6.35,6.35,0,0,1-2.68-1.18,2.56,2.56,0,0,1-.78-2,3.48,3.48,0,0,1,1.22-2.66,4.9,4.9,0,0,1,3.43-1.11,6.3,6.3,0,0,1,3.42.84A3.58,3.58,0,0,1,131,235.5h-2.92a1.72,1.72,0,0,0-.32-.89,2,2,0,0,0-1.65-.59,2.37,2.37,0,0,0-1.36.3.85.85,0,0,0-.41.7.76.76,0,0,0,.43.73,18.71,18.71,0,0,0,3.05.81,5.6,5.6,0,0,1,2.62,1.24,2.82,2.82,0,0,1,.86,2.1,3.39,3.39,0,0,1-1.24,2.71,7.44,7.44,0,0,1-7.73-.06,3.61,3.61,0,0,1-1.26-2.83Z"/><path class="cls-1" d="M134.41,228.21h3.21V232l-.83,7h-1.53l-.85-7Zm.07,12.1h3.07v3h-3.07Z"/><path class="cls-1" d="M11.36,251.7h3.21a2.18,2.18,0,0,1,1.54.54,2,2,0,0,1,.59,1.52,2.2,2.2,0,0,1-.52,1.46,2,2,0,0,1-1.6.62H12.33v3h-1Zm3.77,1a2.08,2.08,0,0,0-.88-.15H12.33V255h1.92a1.83,1.83,0,0,0,1.05-.28,1.11,1.11,0,0,0,.4-1A1.08,1.08,0,0,0,15.13,252.69Z"/><path class="cls-1" d="M17.84,253.64h.83v.9a2,2,0,0,1,.5-.64,1.3,1.3,0,0,1,.92-.38h.08l.2,0v.93l-.14,0H20.1a1.25,1.25,0,0,0-1,.43,1.49,1.49,0,0,0-.36,1v3h-.88Z"/><path class="cls-1" d="M24.38,253.79a2,2,0,0,1,.79.68,2.34,2.34,0,0,1,.35.92,6.07,6.07,0,0,1,.08,1.15h-3.8a2.26,2.26,0,0,0,.37,1.28,1.24,1.24,0,0,0,1.08.48,1.39,1.39,0,0,0,1.09-.46,1.56,1.56,0,0,0,.32-.61h.86a1.83,1.83,0,0,1-.23.64,2.31,2.31,0,0,1-.43.58,2,2,0,0,1-1,.53,3,3,0,0,1-.71.08,2.18,2.18,0,0,1-1.65-.71,2.77,2.77,0,0,1-.67-2,3,3,0,0,1,.68-2,2.24,2.24,0,0,1,1.78-.79A2.36,2.36,0,0,1,24.38,253.79Zm.31,2.05a2.29,2.29,0,0,0-.25-.91,1.26,1.26,0,0,0-1.2-.63,1.32,1.32,0,0,0-1,.44,1.66,1.66,0,0,0-.43,1.11Z"/><path class="cls-1" d="M27.23,257.23a1.26,1.26,0,0,0,.22.67,1.43,1.43,0,0,0,1.18.42,1.76,1.76,0,0,0,.88-.21.7.7,0,0,0,.38-.66.56.56,0,0,0-.3-.51,3.62,3.62,0,0,0-.76-.25l-.71-.18a3.5,3.5,0,0,1-1-.37,1.11,1.11,0,0,1-.58-1,1.5,1.5,0,0,1,.54-1.2,2.18,2.18,0,0,1,1.46-.46,2,2,0,0,1,1.73.69,1.49,1.49,0,0,1,.32.95h-.83a1,1,0,0,0-.21-.54,1.39,1.39,0,0,0-1.07-.34,1.31,1.31,0,0,0-.77.19.59.59,0,0,0-.26.5.61.61,0,0,0,.34.54,2.11,2.11,0,0,0,.59.21l.59.14a4.63,4.63,0,0,1,1.29.44,1.18,1.18,0,0,1,.51,1.06,1.6,1.6,0,0,1-.54,1.21,2.3,2.3,0,0,1-1.63.51,2.21,2.21,0,0,1-1.67-.53,2,2,0,0,1-.53-1.31Z"/><path class="cls-1" d="M34.94,253.79a2,2,0,0,1,.79.68,2.34,2.34,0,0,1,.35.92,6.07,6.07,0,0,1,.08,1.15h-3.8a2.26,2.26,0,0,0,.37,1.28,1.24,1.24,0,0,0,1.08.48,1.39,1.39,0,0,0,1.09-.46,1.56,1.56,0,0,0,.32-.61h.86a1.83,1.83,0,0,1-.23.64,2.31,2.31,0,0,1-.43.58,2,2,0,0,1-1,.53,3,3,0,0,1-.71.08,2.18,2.18,0,0,1-1.65-.71,2.77,2.77,0,0,1-.67-2,3,3,0,0,1,.68-2,2.24,2.24,0,0,1,1.78-.79A2.36,2.36,0,0,1,34.94,253.79Zm.31,2.05a2.29,2.29,0,0,0-.25-.91,1.26,1.26,0,0,0-1.2-.63,1.32,1.32,0,0,0-1,.44,1.66,1.66,0,0,0-.43,1.11Z"/><path class="cls-1" d="M37.27,253.64h.83v.74a2.34,2.34,0,0,1,.79-.66,2.1,2.1,0,0,1,.92-.2,1.52,1.52,0,0,1,1.5.78,2.76,2.76,0,0,1,.21,1.22v3.35h-.89v-3.3a1.79,1.79,0,0,0-.14-.77.86.86,0,0,0-.85-.49,1.72,1.72,0,0,0-.51.06,1.32,1.32,0,0,0-.63.43,1.29,1.29,0,0,0-.29.53,3.6,3.6,0,0,0-.07.79v2.74h-.88Z"/><path class="cls-1" d="M43,252.18h.89v1.46h.83v.72H43.9v3.41a.37.37,0,0,0,.19.37.79.79,0,0,0,.34.05h.14l.17,0v.7l-.31.06-.35,0a1,1,0,0,1-.83-.31,1.4,1.4,0,0,1-.22-.82v-3.46H42.3v-.72H43Z"/><path class="cls-1" d="M48.56,252.18h.89v1.46h.83v.72h-.83v3.41a.37.37,0,0,0,.19.37.79.79,0,0,0,.34.05h.14l.17,0v.7l-.31.06-.35,0a1,1,0,0,1-.83-.31,1.4,1.4,0,0,1-.22-.82v-3.46h-.71v-.72h.71Z"/><path class="cls-1" d="M51.17,251.68H52v2.68a2.54,2.54,0,0,1,.56-.56,1.89,1.89,0,0,1,1.06-.28,1.57,1.57,0,0,1,1.54.8,2.71,2.71,0,0,1,.22,1.21v3.35h-.9v-3.3a1.84,1.84,0,0,0-.15-.84.94.94,0,0,0-.9-.43,1.5,1.5,0,0,0-1,.38A1.81,1.81,0,0,0,52,256.1v2.77h-.88Z"/><path class="cls-1" d="M56.73,251.7h.89v1h-.89Zm0,2h.89v5.21h-.89Z"/><path class="cls-1" d="M59.47,257.23a1.26,1.26,0,0,0,.22.67,1.43,1.43,0,0,0,1.18.42,1.76,1.76,0,0,0,.88-.21.7.7,0,0,0,.38-.66.56.56,0,0,0-.3-.51,3.62,3.62,0,0,0-.76-.25l-.71-.18a3.5,3.5,0,0,1-1-.37,1.11,1.11,0,0,1-.58-1,1.5,1.5,0,0,1,.54-1.2,2.18,2.18,0,0,1,1.46-.46,2,2,0,0,1,1.73.69,1.49,1.49,0,0,1,.32.95H62a1,1,0,0,0-.21-.54,1.39,1.39,0,0,0-1.07-.34,1.31,1.31,0,0,0-.77.19.59.59,0,0,0-.26.5.61.61,0,0,0,.34.54,2.11,2.11,0,0,0,.59.21l.59.14a4.63,4.63,0,0,1,1.29.44,1.18,1.18,0,0,1,.51,1.06,1.6,1.6,0,0,1-.54,1.21,2.3,2.3,0,0,1-1.63.51,2.21,2.21,0,0,1-1.67-.53,2,2,0,0,1-.53-1.31Z"/><path class="cls-1" d="M70.18,253.92a2.06,2.06,0,0,1,.67,1.48H70a1.58,1.58,0,0,0-.36-.8,1.13,1.13,0,0,0-.89-.32,1.23,1.23,0,0,0-1.2.82,3.25,3.25,0,0,0-.23,1.31,2.47,2.47,0,0,0,.33,1.32,1.29,1.29,0,0,0,1.91.2A1.83,1.83,0,0,0,70,257h.85a2.07,2.07,0,0,1-2.23,2,2,2,0,0,1-1.64-.75,2.87,2.87,0,0,1-.61-1.87,3.16,3.16,0,0,1,.67-2.14,2.16,2.16,0,0,1,1.7-.77A2.28,2.28,0,0,1,70.18,253.92Z"/><path class="cls-1" d="M75.52,254.17a2.64,2.64,0,0,1,.69,2,3.42,3.42,0,0,1-.61,2.09,2.21,2.21,0,0,1-1.9.82,2.13,2.13,0,0,1-1.7-.73,2.89,2.89,0,0,1-.63-2,3.13,3.13,0,0,1,.66-2.1,2.22,2.22,0,0,1,1.78-.78A2.34,2.34,0,0,1,75.52,254.17ZM75,257.64a3.32,3.32,0,0,0,.32-1.47,2.64,2.64,0,0,0-.23-1.19,1.3,1.3,0,0,0-1.26-.72,1.24,1.24,0,0,0-1.16.61,2.87,2.87,0,0,0-.36,1.48,2.49,2.49,0,0,0,.36,1.39,1.27,1.27,0,0,0,1.15.56A1.2,1.2,0,0,0,75,257.64Z"/><path class="cls-1" d="M78.17,253.64v3.47a1.5,1.5,0,0,0,.12.65.86.86,0,0,0,.85.47,1.2,1.2,0,0,0,1.22-.82,3.34,3.34,0,0,0,.18-1.21v-2.57h.88v5.23h-.83v-.77a1.76,1.76,0,0,1-.42.5A1.81,1.81,0,0,1,79,259a1.54,1.54,0,0,1-1.49-.75,2.26,2.26,0,0,1-.22-1.07v-3.55Z"/><path class="cls-1" d="M82.78,253.67h.86v.69a2.14,2.14,0,0,1,.58-.55,1.86,1.86,0,0,1,1-.29,2,2,0,0,1,1.51.68,2.79,2.79,0,0,1,.62,1.95,3,3,0,0,1-.9,2.44,2,2,0,0,1-1.32.46,1.8,1.8,0,0,1-1-.26,2.29,2.29,0,0,1-.52-.5V261h-.88Zm3.31,4.1a2.44,2.44,0,0,0,.41-1.54,2.87,2.87,0,0,0-.18-1.07,1.33,1.33,0,0,0-2.51,0,3.61,3.61,0,0,0-.18,1.24,2.63,2.63,0,0,0,.18,1,1.33,1.33,0,0,0,2.28.3Z"/><path class="cls-1" d="M92.2,254.17a2.64,2.64,0,0,1,.69,2,3.42,3.42,0,0,1-.61,2.09,2.21,2.21,0,0,1-1.9.82,2.13,2.13,0,0,1-1.7-.73,2.89,2.89,0,0,1-.63-2,3.13,3.13,0,0,1,.66-2.1,2.22,2.22,0,0,1,1.78-.78A2.34,2.34,0,0,1,92.2,254.17Zm-.55,3.48a3.32,3.32,0,0,0,.32-1.47,2.64,2.64,0,0,0-.23-1.19,1.3,1.3,0,0,0-1.26-.72,1.24,1.24,0,0,0-1.16.61,2.87,2.87,0,0,0-.36,1.48,2.49,2.49,0,0,0,.36,1.39,1.27,1.27,0,0,0,1.15.56A1.2,1.2,0,0,0,91.66,257.64Z"/><path class="cls-1" d="M94,253.64h.83v.74a2.34,2.34,0,0,1,.79-.66,2.1,2.1,0,0,1,.92-.2,1.52,1.52,0,0,1,1.5.78,2.76,2.76,0,0,1,.21,1.22v3.35h-.89v-3.3a1.79,1.79,0,0,0-.14-.77.86.86,0,0,0-.85-.49,1.72,1.72,0,0,0-.51.06,1.32,1.32,0,0,0-.63.43,1.29,1.29,0,0,0-.29.53,3.6,3.6,0,0,0-.07.79v2.74H94Z"/><path class="cls-1" d="M102.49,252.18h.89v1.46h.83v.72h-.83v3.41a.37.37,0,0,0,.19.37.79.79,0,0,0,.34.05H104l.17,0v.7l-.31.06-.35,0a1,1,0,0,1-.83-.31,1.4,1.4,0,0,1-.22-.82v-3.46h-.71v-.72h.71Z"/><path class="cls-1" d="M108.88,254.17a2.64,2.64,0,0,1,.69,2,3.42,3.42,0,0,1-.61,2.09,2.21,2.21,0,0,1-1.9.82,2.13,2.13,0,0,1-1.7-.73,2.89,2.89,0,0,1-.63-2,3.13,3.13,0,0,1,.66-2.1,2.22,2.22,0,0,1,1.78-.78A2.34,2.34,0,0,1,108.88,254.17Zm-.55,3.48a3.32,3.32,0,0,0,.32-1.47,2.64,2.64,0,0,0-.23-1.19,1.3,1.3,0,0,0-1.26-.72,1.24,1.24,0,0,0-1.16.61,2.87,2.87,0,0,0-.36,1.48,2.49,2.49,0,0,0,.36,1.39,1.27,1.27,0,0,0,1.15.56A1.2,1.2,0,0,0,108.34,257.64Z"/><path class="cls-1" d="M116.7,253.64h1l-.83,2.3q-.48,1.35-.8,2.2a14.88,14.88,0,0,1-1.07,2.44,1.23,1.23,0,0,1-1.07.44h-.29l-.25-.05v-.8l.33.08h.18a.63.63,0,0,0,.36-.08.74.74,0,0,0,.19-.2s.07-.16.18-.4l.22-.54-1.93-5.38h1l1.4,4.26Z"/><path class="cls-1" d="M122.22,254.17a2.64,2.64,0,0,1,.69,2,3.42,3.42,0,0,1-.61,2.09,2.21,2.21,0,0,1-1.9.82,2.13,2.13,0,0,1-1.7-.73,2.89,2.89,0,0,1-.63-2,3.13,3.13,0,0,1,.66-2.1,2.22,2.22,0,0,1,1.78-.78A2.34,2.34,0,0,1,122.22,254.17Zm-.55,3.48a3.32,3.32,0,0,0,.32-1.47,2.64,2.64,0,0,0-.23-1.19,1.3,1.3,0,0,0-1.26-.72,1.24,1.24,0,0,0-1.16.61,2.87,2.87,0,0,0-.36,1.48,2.49,2.49,0,0,0,.36,1.39,1.27,1.27,0,0,0,1.15.56A1.2,1.2,0,0,0,121.68,257.64Z"/><path class="cls-1" d="M124.87,253.64v3.47a1.5,1.5,0,0,0,.12.65.86.86,0,0,0,.85.47,1.2,1.2,0,0,0,1.22-.82,3.34,3.34,0,0,0,.18-1.21v-2.57h.88v5.23h-.83v-.77a1.76,1.76,0,0,1-.42.5,1.81,1.81,0,0,1-1.2.41,1.54,1.54,0,0,1-1.49-.75,2.26,2.26,0,0,1-.22-1.07v-3.55Z"/><path class="cls-1" d="M129.58,253.64h.83v.9a2,2,0,0,1,.5-.64,1.3,1.3,0,0,1,.92-.38h.08l.2,0v.93l-.14,0h-.14a1.25,1.25,0,0,0-1,.43,1.49,1.49,0,0,0-.36,1v3h-.88Z"/><path class="cls-1" d="M135.59,251.68h.85v2.6a1.92,1.92,0,0,1,1.56-.77,2,2,0,0,1,1.59.67,2.85,2.85,0,0,1,.61,2,3.39,3.39,0,0,1-.6,2.06,2,2,0,0,1-1.67.82,1.72,1.72,0,0,1-1-.29,2.42,2.42,0,0,1-.52-.55v.67h-.81Zm3.36,6a2.78,2.78,0,0,0,.36-1.49,2.44,2.44,0,0,0-.36-1.37,1.17,1.17,0,0,0-1-.54,1.46,1.46,0,0,0-1.06.44,2,2,0,0,0-.45,1.46,3.23,3.23,0,0,0,.19,1.2,1.29,1.29,0,0,0,1.3.86A1.18,1.18,0,0,0,139,257.7Z"/><path class="cls-1" d="M144,255.71a.48.48,0,0,0,.41-.25.78.78,0,0,0,.06-.34.72.72,0,0,0-.32-.65,1.7,1.7,0,0,0-.91-.2,1.16,1.16,0,0,0-1,.37,1.24,1.24,0,0,0-.21.61h-.82a1.52,1.52,0,0,1,.63-1.35,2.57,2.57,0,0,1,1.4-.38,2.84,2.84,0,0,1,1.5.35,1.19,1.19,0,0,1,.57,1.09v3a.38.38,0,0,0,.06.22.27.27,0,0,0,.24.08h.13l.16,0v.65l-.31.07h-.29a.72.72,0,0,1-.66-.32,1.24,1.24,0,0,1-.15-.48,2.23,2.23,0,0,1-.77.61,2.39,2.39,0,0,1-1.11.26,1.65,1.65,0,0,1-1.19-.44,1.46,1.46,0,0,1-.46-1.1,1.42,1.42,0,0,1,.45-1.13,2.16,2.16,0,0,1,1.19-.49Zm-1.85,2.37a1,1,0,0,0,.66.22,2,2,0,0,0,.9-.21,1.21,1.21,0,0,0,.73-1.17v-.71a1.51,1.51,0,0,1-.41.17,3.49,3.49,0,0,1-.5.1l-.53.07a2.06,2.06,0,0,0-.72.2.78.78,0,0,0-.41.73A.72.72,0,0,0,142.18,258.08Z"/><path class="cls-1" d="M146.81,253.64h.83v.9a2,2,0,0,1,.5-.64,1.3,1.3,0,0,1,.92-.38h.08l.2,0v.93l-.14,0h-.14a1.25,1.25,0,0,0-1,.43,1.49,1.49,0,0,0-.36,1v3h-.88Z"/><path class="cls-1" d="M150.29,252.18h.89v1.46H152v.72h-.83v3.41a.37.37,0,0,0,.19.37.79.79,0,0,0,.34.05h.14l.17,0v.7l-.31.06-.35,0a1,1,0,0,1-.83-.31,1.4,1.4,0,0,1-.22-.82v-3.46h-.71v-.72h.71Z"/><path class="cls-1" d="M156.13,253.79a2,2,0,0,1,.79.68,2.34,2.34,0,0,1,.35.92,6.07,6.07,0,0,1,.08,1.15h-3.8a2.26,2.26,0,0,0,.37,1.28,1.24,1.24,0,0,0,1.08.48,1.39,1.39,0,0,0,1.09-.46,1.56,1.56,0,0,0,.32-.61h.86a1.83,1.83,0,0,1-.23.64,2.31,2.31,0,0,1-.43.58,2,2,0,0,1-1,.53,3,3,0,0,1-.71.08,2.18,2.18,0,0,1-1.65-.71,2.77,2.77,0,0,1-.67-2,3,3,0,0,1,.68-2,2.24,2.24,0,0,1,1.78-.79A2.36,2.36,0,0,1,156.13,253.79Zm.31,2.05a2.29,2.29,0,0,0-.25-.91,1.26,1.26,0,0,0-1.2-.63,1.32,1.32,0,0,0-1,.44,1.66,1.66,0,0,0-.43,1.11Z"/><path class="cls-1" d="M158.46,253.64h.83v.74a2.34,2.34,0,0,1,.79-.66,2.1,2.1,0,0,1,.92-.2,1.52,1.52,0,0,1,1.5.78,2.76,2.76,0,0,1,.21,1.22v3.35h-.89v-3.3a1.79,1.79,0,0,0-.14-.77.86.86,0,0,0-.85-.49,1.72,1.72,0,0,0-.51.06,1.32,1.32,0,0,0-.63.43,1.29,1.29,0,0,0-.29.53,3.6,3.6,0,0,0-.07.79v2.74h-.88Z"/><path class="cls-1" d="M166.89,253.81a2.35,2.35,0,0,1,.53.51v-2.64h.84v7.2h-.79v-.73a1.9,1.9,0,0,1-.72.7,2.07,2.07,0,0,1-1,.21,1.94,1.94,0,0,1-1.51-.73,2.88,2.88,0,0,1-.64-2,3.39,3.39,0,0,1,.58-2,1.9,1.9,0,0,1,1.66-.84A1.85,1.85,0,0,1,166.89,253.81Zm-2,3.92a1.24,1.24,0,0,0,1.14.57,1.19,1.19,0,0,0,1-.52,2.49,2.49,0,0,0,.39-1.51,2.23,2.23,0,0,0-.4-1.47,1.25,1.25,0,0,0-1-.48,1.31,1.31,0,0,0-1.07.51,2.33,2.33,0,0,0-.41,1.49A2.6,2.6,0,0,0,164.93,257.73Z"/><path class="cls-1" d="M172.81,253.79a2,2,0,0,1,.79.68,2.34,2.34,0,0,1,.35.92,6.07,6.07,0,0,1,.08,1.15h-3.8a2.26,2.26,0,0,0,.37,1.28,1.24,1.24,0,0,0,1.08.48,1.39,1.39,0,0,0,1.09-.46,1.56,1.56,0,0,0,.32-.61H174a1.83,1.83,0,0,1-.23.64,2.31,2.31,0,0,1-.43.58,2,2,0,0,1-1,.53,3,3,0,0,1-.71.08,2.18,2.18,0,0,1-1.65-.71,2.77,2.77,0,0,1-.67-2,3,3,0,0,1,.68-2,2.24,2.24,0,0,1,1.78-.79A2.36,2.36,0,0,1,172.81,253.79Zm.31,2.05a2.29,2.29,0,0,0-.25-.91,1.26,1.26,0,0,0-1.2-.63,1.32,1.32,0,0,0-1,.44,1.66,1.66,0,0,0-.43,1.11Z"/><path class="cls-1" d="M175.17,253.64H176v.9a2,2,0,0,1,.5-.64,1.3,1.3,0,0,1,.92-.38h.08l.2,0v.93l-.14,0h-.14a1.25,1.25,0,0,0-1,.43,1.49,1.49,0,0,0-.36,1v3h-.88Z"/><path class="cls-1" d="M185,254.17a2.64,2.64,0,0,1,.69,2,3.42,3.42,0,0,1-.61,2.09,2.21,2.21,0,0,1-1.9.82,2.13,2.13,0,0,1-1.7-.73,2.89,2.89,0,0,1-.63-2,3.13,3.13,0,0,1,.66-2.1,2.22,2.22,0,0,1,1.78-.78A2.34,2.34,0,0,1,185,254.17Zm-.55,3.48a3.32,3.32,0,0,0,.32-1.47,2.64,2.64,0,0,0-.23-1.19,1.3,1.3,0,0,0-1.26-.72,1.24,1.24,0,0,0-1.16.61,2.87,2.87,0,0,0-.36,1.48,2.49,2.49,0,0,0,.36,1.39,1.27,1.27,0,0,0,1.15.56A1.2,1.2,0,0,0,184.49,257.64Z"/><path class="cls-1" d="M186.84,253.64h.83v.9a2,2,0,0,1,.5-.64,1.3,1.3,0,0,1,.92-.38h.08l.2,0v.93l-.14,0h-.14a1.25,1.25,0,0,0-1,.43,1.49,1.49,0,0,0-.36,1v3h-.88Z"/><path class="cls-1" d="M7,269.23a1.26,1.26,0,0,0,.22.67,1.43,1.43,0,0,0,1.18.42,1.76,1.76,0,0,0,.88-.21.7.7,0,0,0,.38-.66.56.56,0,0,0-.3-.51,3.62,3.62,0,0,0-.76-.25l-.71-.18a3.5,3.5,0,0,1-1-.37,1.11,1.11,0,0,1-.58-1,1.5,1.5,0,0,1,.54-1.2,2.18,2.18,0,0,1,1.46-.46,2,2,0,0,1,1.73.69,1.49,1.49,0,0,1,.32.95H9.48a1,1,0,0,0-.21-.54,1.39,1.39,0,0,0-1.07-.34,1.31,1.31,0,0,0-.77.19.59.59,0,0,0-.26.5.61.61,0,0,0,.34.54,2.11,2.11,0,0,0,.59.21l.59.14a4.63,4.63,0,0,1,1.29.44,1.18,1.18,0,0,1,.51,1.06,1.6,1.6,0,0,1-.54,1.21,2.3,2.3,0,0,1-1.63.51,2.21,2.21,0,0,1-1.67-.53,2,2,0,0,1-.53-1.31Z"/><path class="cls-1" d="M14.67,265.79a2,2,0,0,1,.79.68,2.34,2.34,0,0,1,.35.92,6.07,6.07,0,0,1,.08,1.15h-3.8a2.26,2.26,0,0,0,.37,1.28,1.24,1.24,0,0,0,1.08.48,1.39,1.39,0,0,0,1.09-.46,1.56,1.56,0,0,0,.32-.61h.86a1.83,1.83,0,0,1-.23.64,2.31,2.31,0,0,1-.43.58,2,2,0,0,1-1,.53,3,3,0,0,1-.71.08,2.18,2.18,0,0,1-1.65-.71,2.77,2.77,0,0,1-.67-2,3,3,0,0,1,.68-2,2.24,2.24,0,0,1,1.78-.79A2.36,2.36,0,0,1,14.67,265.79Zm.31,2.05a2.29,2.29,0,0,0-.25-.91,1.26,1.26,0,0,0-1.2-.63,1.32,1.32,0,0,0-1,.44,1.66,1.66,0,0,0-.43,1.11Z"/><path class="cls-1" d="M17,265.64h.83v.9a2,2,0,0,1,.5-.64,1.3,1.3,0,0,1,.92-.38h.08l.2,0v.93l-.14,0h-.14a1.25,1.25,0,0,0-1,.43,1.49,1.49,0,0,0-.36,1v3H17Z"/><path class="cls-1" d="M20.76,265.64l1.4,4.26,1.46-4.26h1l-2,5.23h-.94l-1.93-5.23Z"/><path class="cls-1" d="M28.56,265.79a2,2,0,0,1,.79.68,2.34,2.34,0,0,1,.35.92,6.07,6.07,0,0,1,.08,1.15H26a2.26,2.26,0,0,0,.37,1.28,1.24,1.24,0,0,0,1.08.48,1.39,1.39,0,0,0,1.09-.46,1.56,1.56,0,0,0,.32-.61h.86a1.83,1.83,0,0,1-.23.64,2.31,2.31,0,0,1-.43.58,2,2,0,0,1-1,.53,3,3,0,0,1-.71.08,2.18,2.18,0,0,1-1.65-.71,2.77,2.77,0,0,1-.67-2,3,3,0,0,1,.68-2,2.24,2.24,0,0,1,1.78-.79A2.36,2.36,0,0,1,28.56,265.79Zm.31,2.05a2.29,2.29,0,0,0-.25-.91,1.26,1.26,0,0,0-1.2-.63,1.32,1.32,0,0,0-1,.44,1.66,1.66,0,0,0-.43,1.11Z"/><path class="cls-1" d="M30.92,265.64h.83v.9a2,2,0,0,1,.5-.64,1.3,1.3,0,0,1,.92-.38h.08l.2,0v.93l-.14,0h-.14a1.25,1.25,0,0,0-1,.43,1.49,1.49,0,0,0-.36,1v3h-.88Z"/><path class="cls-1" d="M37.18,264.18h.89v1.46h.83v.72h-.83v3.41a.37.37,0,0,0,.19.37.79.79,0,0,0,.34.05h.14l.17,0v.7l-.31.06-.35,0a1,1,0,0,1-.83-.31,1.4,1.4,0,0,1-.22-.82v-3.46h-.71v-.72h.71Z"/><path class="cls-1" d="M43.57,266.17a2.64,2.64,0,0,1,.69,2,3.42,3.42,0,0,1-.61,2.09,2.21,2.21,0,0,1-1.9.82,2.13,2.13,0,0,1-1.7-.73,2.89,2.89,0,0,1-.63-2,3.13,3.13,0,0,1,.66-2.1,2.22,2.22,0,0,1,1.78-.78A2.34,2.34,0,0,1,43.57,266.17ZM43,269.64a3.32,3.32,0,0,0,.32-1.47,2.64,2.64,0,0,0-.23-1.19,1.3,1.3,0,0,0-1.26-.72,1.24,1.24,0,0,0-1.16.61,2.87,2.87,0,0,0-.36,1.48,2.49,2.49,0,0,0,.36,1.39,1.27,1.27,0,0,0,1.15.56A1.2,1.2,0,0,0,43,269.64Z"/><path class="cls-1" d="M48.14,265.64H49v.9a2,2,0,0,1,.5-.64,1.3,1.3,0,0,1,.92-.38h.08l.2,0v.93l-.14,0H50.4a1.25,1.25,0,0,0-1,.43,1.49,1.49,0,0,0-.36,1v3h-.88Z"/><path class="cls-1" d="M54.68,265.79a2,2,0,0,1,.79.68,2.34,2.34,0,0,1,.35.92,6.07,6.07,0,0,1,.08,1.15h-3.8a2.26,2.26,0,0,0,.37,1.28,1.24,1.24,0,0,0,1.08.48,1.39,1.39,0,0,0,1.09-.46,1.56,1.56,0,0,0,.32-.61h.86a1.83,1.83,0,0,1-.23.64,2.31,2.31,0,0,1-.43.58,2,2,0,0,1-1,.53,3,3,0,0,1-.71.08,2.18,2.18,0,0,1-1.65-.71,2.77,2.77,0,0,1-.67-2,3,3,0,0,1,.68-2,2.24,2.24,0,0,1,1.78-.79A2.36,2.36,0,0,1,54.68,265.79Zm.31,2.05a2.29,2.29,0,0,0-.25-.91,1.26,1.26,0,0,0-1.2-.63,1.32,1.32,0,0,0-1,.44,1.66,1.66,0,0,0-.43,1.11Z"/><path class="cls-1" d="M59.88,265.81a2.35,2.35,0,0,1,.53.51v-2.64h.84v7.2h-.79v-.73a1.9,1.9,0,0,1-.72.7,2.07,2.07,0,0,1-1,.21,1.94,1.94,0,0,1-1.51-.73,2.88,2.88,0,0,1-.64-2,3.39,3.39,0,0,1,.58-2,1.9,1.9,0,0,1,1.66-.84A1.85,1.85,0,0,1,59.88,265.81Zm-2,3.92a1.24,1.24,0,0,0,1.14.57,1.19,1.19,0,0,0,1-.52,2.49,2.49,0,0,0,.39-1.51,2.23,2.23,0,0,0-.4-1.47,1.25,1.25,0,0,0-1-.48,1.31,1.31,0,0,0-1.07.51,2.33,2.33,0,0,0-.41,1.49A2.6,2.6,0,0,0,57.92,269.73Z"/><path class="cls-1" d="M65.8,265.79a2,2,0,0,1,.79.68,2.34,2.34,0,0,1,.35.92,6.07,6.07,0,0,1,.08,1.15h-3.8a2.26,2.26,0,0,0,.37,1.28,1.24,1.24,0,0,0,1.08.48,1.39,1.39,0,0,0,1.09-.46,1.56,1.56,0,0,0,.32-.61h.86a1.83,1.83,0,0,1-.23.64,2.31,2.31,0,0,1-.43.58,2,2,0,0,1-1,.53,3,3,0,0,1-.71.08,2.18,2.18,0,0,1-1.65-.71,2.77,2.77,0,0,1-.67-2,3,3,0,0,1,.68-2,2.24,2.24,0,0,1,1.78-.79A2.36,2.36,0,0,1,65.8,265.79Zm.31,2.05a2.29,2.29,0,0,0-.25-.91,1.26,1.26,0,0,0-1.2-.63,1.32,1.32,0,0,0-1,.44,1.66,1.66,0,0,0-.43,1.11Z"/><path class="cls-1" d="M71.36,265.79a2,2,0,0,1,.79.68,2.34,2.34,0,0,1,.35.92,6.07,6.07,0,0,1,.08,1.15h-3.8a2.26,2.26,0,0,0,.37,1.28,1.24,1.24,0,0,0,1.08.48,1.39,1.39,0,0,0,1.09-.46,1.56,1.56,0,0,0,.32-.61h.86a1.83,1.83,0,0,1-.23.64,2.31,2.31,0,0,1-.43.58,2,2,0,0,1-1,.53,3,3,0,0,1-.71.08,2.18,2.18,0,0,1-1.65-.71,2.77,2.77,0,0,1-.67-2,3,3,0,0,1,.68-2,2.24,2.24,0,0,1,1.78-.79A2.36,2.36,0,0,1,71.36,265.79Zm.31,2.05a2.29,2.29,0,0,0-.25-.91,1.26,1.26,0,0,0-1.2-.63,1.32,1.32,0,0,0-1,.44,1.66,1.66,0,0,0-.43,1.11Z"/><path class="cls-1" d="M73.7,265.64h.87v.74a2.92,2.92,0,0,1,.57-.56,1.7,1.7,0,0,1,1-.3,1.55,1.55,0,0,1,1,.31,1.61,1.61,0,0,1,.39.52,1.82,1.82,0,0,1,1.58-.83,1.45,1.45,0,0,1,1.44.76,2.49,2.49,0,0,1,.21,1.1v3.48h-.91v-3.63a.85.85,0,0,0-.26-.72,1,1,0,0,0-.64-.2,1.27,1.27,0,0,0-.89.35,1.52,1.52,0,0,0-.37,1.16v3h-.89v-3.41a1.77,1.77,0,0,0-.13-.78.77.77,0,0,0-.75-.37,1.29,1.29,0,0,0-.91.39,1.89,1.89,0,0,0-.41,1.4v2.77H73.7Z"/><path class="cls-1" d="M88.07,265.64h1l-.83,2.3q-.48,1.35-.8,2.2a14.88,14.88,0,0,1-1.07,2.44,1.23,1.23,0,0,1-1.07.44H85l-.25-.05v-.8l.33.08h.18a.63.63,0,0,0,.36-.08.74.74,0,0,0,.19-.2s.07-.16.18-.4l.22-.54-1.93-5.38h1l1.4,4.26Z"/><path class="cls-1" d="M93.59,266.17a2.64,2.64,0,0,1,.69,2,3.42,3.42,0,0,1-.61,2.09,2.21,2.21,0,0,1-1.9.82,2.13,2.13,0,0,1-1.7-.73,2.89,2.89,0,0,1-.63-2,3.13,3.13,0,0,1,.66-2.1,2.22,2.22,0,0,1,1.78-.78A2.34,2.34,0,0,1,93.59,266.17ZM93,269.64a3.32,3.32,0,0,0,.32-1.47,2.64,2.64,0,0,0-.23-1.19,1.3,1.3,0,0,0-1.26-.72,1.24,1.24,0,0,0-1.16.61,2.87,2.87,0,0,0-.36,1.48,2.49,2.49,0,0,0,.36,1.39,1.27,1.27,0,0,0,1.15.56A1.2,1.2,0,0,0,93,269.64Z"/><path class="cls-1" d="M96.25,265.64v3.47a1.5,1.5,0,0,0,.12.65.86.86,0,0,0,.85.47,1.2,1.2,0,0,0,1.22-.82,3.34,3.34,0,0,0,.18-1.21v-2.57h.88v5.23h-.83v-.77a1.76,1.76,0,0,1-.42.5,1.81,1.81,0,0,1-1.2.41,1.54,1.54,0,0,1-1.49-.75,2.26,2.26,0,0,1-.22-1.07v-3.55Z"/><path class="cls-1" d="M101,265.64h.83v.9a2,2,0,0,1,.5-.64,1.3,1.3,0,0,1,.92-.38h.08l.2,0v.93l-.14,0h-.14a1.25,1.25,0,0,0-1,.43,1.49,1.49,0,0,0-.36,1v3H101Z"/><path class="cls-1" d="M107.06,265.64h.83v.9a2,2,0,0,1,.5-.64,1.3,1.3,0,0,1,.92-.38h.08l.2,0v.93l-.14,0h-.14a1.25,1.25,0,0,0-1,.43,1.49,1.49,0,0,0-.36,1v3h-.88Z"/><path class="cls-1" d="M113.6,265.79a2,2,0,0,1,.79.68,2.34,2.34,0,0,1,.35.92,6.07,6.07,0,0,1,.08,1.15H111a2.26,2.26,0,0,0,.37,1.28,1.24,1.24,0,0,0,1.08.48,1.39,1.39,0,0,0,1.09-.46,1.56,1.56,0,0,0,.32-.61h.86a1.83,1.83,0,0,1-.23.64,2.31,2.31,0,0,1-.43.58,2,2,0,0,1-1,.53,3,3,0,0,1-.71.08,2.18,2.18,0,0,1-1.65-.71,2.77,2.77,0,0,1-.67-2,3,3,0,0,1,.68-2,2.24,2.24,0,0,1,1.78-.79A2.36,2.36,0,0,1,113.6,265.79Zm.31,2.05a2.29,2.29,0,0,0-.25-.91,1.26,1.26,0,0,0-1.2-.63,1.32,1.32,0,0,0-1,.44,1.66,1.66,0,0,0-.43,1.11Z"/><path class="cls-1" d="M116.34,265.64l1,4.12,1-4.12h1l1,4.1,1.07-4.1h.88l-1.52,5.23h-.91l-1.06-4-1,4h-.91l-1.51-5.23Z"/><path class="cls-1" d="M126,267.71a.48.48,0,0,0,.41-.25.78.78,0,0,0,.06-.34.72.72,0,0,0-.32-.65,1.7,1.7,0,0,0-.91-.2,1.16,1.16,0,0,0-1,.37,1.24,1.24,0,0,0-.21.61h-.82a1.52,1.52,0,0,1,.63-1.35,2.57,2.57,0,0,1,1.4-.38,2.84,2.84,0,0,1,1.5.35,1.19,1.19,0,0,1,.57,1.09v3a.38.38,0,0,0,.06.22.27.27,0,0,0,.24.08h.13l.16,0v.65l-.31.07h-.29a.72.72,0,0,1-.66-.32,1.24,1.24,0,0,1-.15-.48,2.23,2.23,0,0,1-.77.61,2.39,2.39,0,0,1-1.11.26,1.65,1.65,0,0,1-1.19-.44,1.46,1.46,0,0,1-.46-1.1,1.42,1.42,0,0,1,.45-1.13,2.16,2.16,0,0,1,1.19-.49Zm-1.85,2.37a1,1,0,0,0,.66.22,2,2,0,0,0,.9-.21,1.21,1.21,0,0,0,.73-1.17v-.71a1.51,1.51,0,0,1-.41.17,3.49,3.49,0,0,1-.5.1l-.53.07a2.06,2.06,0,0,0-.72.2.78.78,0,0,0-.41.73A.72.72,0,0,0,124.1,270.08Z"/><path class="cls-1" d="M128.74,265.64h.83v.9a2,2,0,0,1,.5-.64,1.3,1.3,0,0,1,.92-.38h.08l.2,0v.93l-.14,0H131a1.25,1.25,0,0,0-1,.43,1.49,1.49,0,0,0-.36,1v3h-.88Z"/><path class="cls-1" d="M134.91,265.81a2.35,2.35,0,0,1,.53.51v-2.64h.84v7.2h-.79v-.73a1.9,1.9,0,0,1-.72.7,2.07,2.07,0,0,1-1,.21,1.94,1.94,0,0,1-1.51-.73,2.88,2.88,0,0,1-.64-2,3.39,3.39,0,0,1,.58-2,1.9,1.9,0,0,1,1.66-.84A1.85,1.85,0,0,1,134.91,265.81Zm-2,3.92a1.24,1.24,0,0,0,1.14.57,1.19,1.19,0,0,0,1-.52,2.49,2.49,0,0,0,.39-1.51,2.23,2.23,0,0,0-.4-1.47,1.25,1.25,0,0,0-1-.48,1.31,1.31,0,0,0-1.07.51,2.33,2.33,0,0,0-.41,1.49A2.6,2.6,0,0,0,133,269.73Z"/><path class="cls-1" d="M140.38,265.64h.83v.74a2.34,2.34,0,0,1,.79-.66,2.1,2.1,0,0,1,.92-.2,1.52,1.52,0,0,1,1.5.78,2.76,2.76,0,0,1,.21,1.22v3.35h-.89v-3.3a1.79,1.79,0,0,0-.14-.77.86.86,0,0,0-.85-.49,1.72,1.72,0,0,0-.51.06,1.32,1.32,0,0,0-.63.43,1.29,1.29,0,0,0-.29.53,3.6,3.6,0,0,0-.07.79v2.74h-.88Z"/><path class="cls-1" d="M149.73,266.17a2.64,2.64,0,0,1,.69,2,3.42,3.42,0,0,1-.61,2.09,2.21,2.21,0,0,1-1.9.82,2.13,2.13,0,0,1-1.7-.73,2.89,2.89,0,0,1-.63-2,3.13,3.13,0,0,1,.66-2.1,2.22,2.22,0,0,1,1.78-.78A2.34,2.34,0,0,1,149.73,266.17Zm-.55,3.48a3.32,3.32,0,0,0,.32-1.47,2.64,2.64,0,0,0-.23-1.19,1.3,1.3,0,0,0-1.26-.72,1.24,1.24,0,0,0-1.16.61,2.87,2.87,0,0,0-.36,1.48,2.49,2.49,0,0,0,.36,1.39,1.27,1.27,0,0,0,1.15.56A1.2,1.2,0,0,0,149.19,269.64Z"/><path class="cls-1" d="M151.91,265.64l1,4.12,1-4.12h1l1,4.1,1.07-4.1h.88l-1.52,5.23h-.91l-1.06-4-1,4h-.91l-1.51-5.23Z"/><path class="cls-1" d="M158.36,271.9a.62.62,0,0,0,.47-.48,1.35,1.35,0,0,0,.07-.43s0,0,0-.06a.34.34,0,0,0,0-.06h-.53v-1.06h1v1a2.14,2.14,0,0,1-.23,1,1.07,1.07,0,0,1-.81.54Z"/><path class="cls-1" d="M167.52,266.17a2.64,2.64,0,0,1,.69,2,3.42,3.42,0,0,1-.61,2.09,2.21,2.21,0,0,1-1.9.82,2.13,2.13,0,0,1-1.7-.73,2.89,2.89,0,0,1-.63-2,3.13,3.13,0,0,1,.66-2.1,2.22,2.22,0,0,1,1.78-.78A2.34,2.34,0,0,1,167.52,266.17Zm-.55,3.48a3.32,3.32,0,0,0,.32-1.47,2.64,2.64,0,0,0-.23-1.19,1.3,1.3,0,0,0-1.26-.72,1.24,1.24,0,0,0-1.16.61,2.87,2.87,0,0,0-.36,1.48,2.49,2.49,0,0,0,.36,1.39,1.27,1.27,0,0,0,1.15.56A1.2,1.2,0,0,0,167,269.64Z"/><path class="cls-1" d="M169.32,265.64h.83v.9a2,2,0,0,1,.5-.64,1.3,1.3,0,0,1,.92-.38h.08l.2,0v.93l-.14,0h-.14a1.25,1.25,0,0,0-1,.43,1.49,1.49,0,0,0-.36,1v3h-.88Z"/><path class="cls-1" d="M178.86,265.92a2.06,2.06,0,0,1,.67,1.48h-.85a1.58,1.58,0,0,0-.36-.8,1.13,1.13,0,0,0-.89-.32,1.23,1.23,0,0,0-1.2.82,3.25,3.25,0,0,0-.23,1.31,2.47,2.47,0,0,0,.33,1.32,1.29,1.29,0,0,0,1.91.2,1.83,1.83,0,0,0,.44-.91h.85a2.07,2.07,0,0,1-2.23,2,2,2,0,0,1-1.64-.75,2.87,2.87,0,0,1-.61-1.87,3.16,3.16,0,0,1,.67-2.14,2.16,2.16,0,0,1,1.7-.77A2.28,2.28,0,0,1,178.86,265.92Z"/><path class="cls-1" d="M180.43,263.7h.88v7.17h-.88Z"/><path class="cls-1" d="M182.63,263.7h.89v1h-.89Zm0,2h.89v5.21h-.89Z"/><path class="cls-1" d="M188.3,265.92a2.06,2.06,0,0,1,.67,1.48h-.85a1.58,1.58,0,0,0-.36-.8,1.13,1.13,0,0,0-.89-.32,1.23,1.23,0,0,0-1.2.82,3.25,3.25,0,0,0-.23,1.31,2.47,2.47,0,0,0,.33,1.32,1.29,1.29,0,0,0,1.91.2,1.83,1.83,0,0,0,.44-.91H189a2.07,2.07,0,0,1-2.23,2,2,2,0,0,1-1.64-.75,2.87,2.87,0,0,1-.61-1.87,3.16,3.16,0,0,1,.67-2.14,2.16,2.16,0,0,1,1.7-.77A2.28,2.28,0,0,1,188.3,265.92Z"/><path class="cls-1" d="M189.83,263.7h.84v4.16l2.25-2.22h1.12l-2,1.94,2.12,3.29H193l-1.65-2.66-.72.7v2h-.84Z"/><path class="cls-1" d="M29.66,276.18h.89v1.46h.83v.72h-.83v3.41a.37.37,0,0,0,.19.37.79.79,0,0,0,.34.05h.14l.17,0v.7l-.31.06-.35,0a1,1,0,0,1-.83-.31,1.4,1.4,0,0,1-.22-.82v-3.46H29v-.72h.71Z"/><path class="cls-1" d="M32.27,275.68h.88v2.68a2.54,2.54,0,0,1,.56-.56,1.89,1.89,0,0,1,1.06-.28,1.57,1.57,0,0,1,1.54.8,2.71,2.71,0,0,1,.22,1.21v3.35h-.9v-3.3a1.84,1.84,0,0,0-.15-.84.94.94,0,0,0-.9-.43,1.5,1.5,0,0,0-1,.38,1.81,1.81,0,0,0-.44,1.42v2.77h-.88Z"/><path class="cls-1" d="M41.06,277.79a2,2,0,0,1,.79.68,2.34,2.34,0,0,1,.35.92,6.07,6.07,0,0,1,.08,1.15h-3.8a2.26,2.26,0,0,0,.37,1.28,1.24,1.24,0,0,0,1.08.48,1.39,1.39,0,0,0,1.09-.46,1.56,1.56,0,0,0,.32-.61h.86a1.83,1.83,0,0,1-.23.64,2.31,2.31,0,0,1-.43.58,2,2,0,0,1-1,.53,3,3,0,0,1-.71.08,2.18,2.18,0,0,1-1.65-.71,2.77,2.77,0,0,1-.67-2,3,3,0,0,1,.68-2,2.24,2.24,0,0,1,1.78-.79A2.36,2.36,0,0,1,41.06,277.79Zm.31,2.05a2.29,2.29,0,0,0-.25-.91,1.26,1.26,0,0,0-1.2-.63,1.32,1.32,0,0,0-1,.44,1.66,1.66,0,0,0-.43,1.11Z"/><path class="cls-1" d="M46.69,281.23a1.26,1.26,0,0,0,.22.67,1.43,1.43,0,0,0,1.18.42,1.76,1.76,0,0,0,.88-.21.7.7,0,0,0,.38-.66A.56.56,0,0,0,49,281a3.62,3.62,0,0,0-.76-.25l-.71-.18a3.5,3.5,0,0,1-1-.37,1.11,1.11,0,0,1-.58-1,1.5,1.5,0,0,1,.54-1.2,2.18,2.18,0,0,1,1.46-.46,2,2,0,0,1,1.73.69,1.49,1.49,0,0,1,.32.95h-.83a1,1,0,0,0-.21-.54,1.39,1.39,0,0,0-1.07-.34,1.31,1.31,0,0,0-.77.19.59.59,0,0,0-.26.5.61.61,0,0,0,.34.54,2.11,2.11,0,0,0,.59.21l.59.14a4.63,4.63,0,0,1,1.29.44,1.18,1.18,0,0,1,.51,1.06,1.6,1.6,0,0,1-.54,1.21,2.3,2.3,0,0,1-1.63.51,2.21,2.21,0,0,1-1.67-.53,2,2,0,0,1-.53-1.31Z"/><path class="cls-1" d="M54,279.71a.48.48,0,0,0,.41-.25.78.78,0,0,0,.06-.34.72.72,0,0,0-.32-.65,1.7,1.7,0,0,0-.91-.2,1.16,1.16,0,0,0-1,.37,1.24,1.24,0,0,0-.21.61H51.2a1.52,1.52,0,0,1,.63-1.35,2.57,2.57,0,0,1,1.4-.38,2.84,2.84,0,0,1,1.5.35,1.19,1.19,0,0,1,.57,1.09v3a.38.38,0,0,0,.06.22.27.27,0,0,0,.24.08h.13l.16,0v.65l-.31.07h-.29a.72.72,0,0,1-.66-.32,1.24,1.24,0,0,1-.15-.48,2.23,2.23,0,0,1-.77.61,2.39,2.39,0,0,1-1.11.26,1.65,1.65,0,0,1-1.19-.44,1.46,1.46,0,0,1-.46-1.1,1.42,1.42,0,0,1,.45-1.13,2.16,2.16,0,0,1,1.19-.49Zm-1.85,2.37a1,1,0,0,0,.66.22,2,2,0,0,0,.9-.21,1.21,1.21,0,0,0,.73-1.17v-.71a1.51,1.51,0,0,1-.41.17,3.49,3.49,0,0,1-.5.1l-.53.07a2.06,2.06,0,0,0-.72.2.78.78,0,0,0-.41.73A.72.72,0,0,0,52.12,282.08Z"/><path class="cls-1" d="M57.16,277.64l1.4,4.26L60,277.64h1l-2,5.23h-.94l-1.93-5.23Z"/><path class="cls-1" d="M65,277.79a2,2,0,0,1,.79.68,2.34,2.34,0,0,1,.35.92,6.07,6.07,0,0,1,.08,1.15h-3.8a2.26,2.26,0,0,0,.37,1.28,1.24,1.24,0,0,0,1.08.48,1.39,1.39,0,0,0,1.09-.46,1.56,1.56,0,0,0,.32-.61h.86a1.83,1.83,0,0,1-.23.64,2.31,2.31,0,0,1-.43.58,2,2,0,0,1-1,.53,3,3,0,0,1-.71.08,2.18,2.18,0,0,1-1.65-.71,2.77,2.77,0,0,1-.67-2,3,3,0,0,1,.68-2,2.24,2.24,0,0,1,1.78-.79A2.36,2.36,0,0,1,65,277.79Zm.31,2.05a2.29,2.29,0,0,0-.25-.91,1.26,1.26,0,0,0-1.2-.63,1.32,1.32,0,0,0-1,.44,1.66,1.66,0,0,0-.43,1.11Z"/><path class="cls-1" d="M70,275.68h.85v2.6a1.92,1.92,0,0,1,1.56-.77,2,2,0,0,1,1.59.67,2.85,2.85,0,0,1,.61,2,3.39,3.39,0,0,1-.6,2.06,2,2,0,0,1-1.67.82,1.72,1.72,0,0,1-1-.29,2.42,2.42,0,0,1-.52-.55v.67H70Zm3.36,6a2.78,2.78,0,0,0,.36-1.49,2.44,2.44,0,0,0-.36-1.37,1.17,1.17,0,0,0-1-.54,1.46,1.46,0,0,0-1.06.44,2,2,0,0,0-.45,1.46,3.23,3.23,0,0,0,.19,1.2,1.29,1.29,0,0,0,1.3.86A1.18,1.18,0,0,0,73.36,281.7Z"/><path class="cls-1" d="M76.51,277.64v3.47a1.5,1.5,0,0,0,.12.65.86.86,0,0,0,.85.47,1.2,1.2,0,0,0,1.22-.82,3.34,3.34,0,0,0,.18-1.21v-2.57h.88v5.23h-.83v-.77a1.76,1.76,0,0,1-.42.5,1.81,1.81,0,0,1-1.2.41,1.54,1.54,0,0,1-1.49-.75,2.26,2.26,0,0,1-.22-1.07v-3.55Z"/><path class="cls-1" d="M81.37,276.18h.89v1.46h.83v.72h-.83v3.41a.37.37,0,0,0,.19.37.79.79,0,0,0,.34.05h.14l.17,0v.7l-.31.06-.35,0a1,1,0,0,1-.83-.31,1.4,1.4,0,0,1-.22-.82v-3.46h-.71v-.72h.71Z"/><path class="cls-1" d="M84.15,276.18H85v1.46h.83v.72H85v3.41a.37.37,0,0,0,.19.37.79.79,0,0,0,.34.05h.14l.17,0v.7l-.31.06-.35,0a1,1,0,0,1-.83-.31,1.4,1.4,0,0,1-.22-.82v-3.46h-.71v-.72h.71Z"/><path class="cls-1" d="M90.54,278.17a2.64,2.64,0,0,1,.69,2,3.42,3.42,0,0,1-.61,2.09,2.21,2.21,0,0,1-1.9.82,2.13,2.13,0,0,1-1.7-.73,2.89,2.89,0,0,1-.63-2,3.13,3.13,0,0,1,.66-2.1,2.22,2.22,0,0,1,1.78-.78A2.34,2.34,0,0,1,90.54,278.17ZM90,281.64a3.32,3.32,0,0,0,.32-1.47,2.64,2.64,0,0,0-.23-1.19,1.3,1.3,0,0,0-1.26-.72,1.24,1.24,0,0,0-1.16.61,2.87,2.87,0,0,0-.36,1.48,2.49,2.49,0,0,0,.36,1.39,1.27,1.27,0,0,0,1.15.56A1.2,1.2,0,0,0,90,281.64Z"/><path class="cls-1" d="M92.31,277.64h.83v.74a2.34,2.34,0,0,1,.79-.66,2.1,2.1,0,0,1,.92-.2,1.52,1.52,0,0,1,1.5.78,2.76,2.76,0,0,1,.21,1.22v3.35h-.89v-3.3a1.79,1.79,0,0,0-.14-.77.86.86,0,0,0-.85-.49,1.72,1.72,0,0,0-.51.06,1.32,1.32,0,0,0-.63.43,1.29,1.29,0,0,0-.29.53,3.6,3.6,0,0,0-.07.79v2.74h-.88Z"/><path class="cls-1" d="M100.83,276.18h.89v1.46h.83v.72h-.83v3.41a.37.37,0,0,0,.19.37.79.79,0,0,0,.34.05h.14l.17,0v.7l-.31.06-.35,0a1,1,0,0,1-.83-.31,1.4,1.4,0,0,1-.22-.82v-3.46h-.71v-.72h.71Z"/><path class="cls-1" d="M107.22,278.17a2.64,2.64,0,0,1,.69,2,3.42,3.42,0,0,1-.61,2.09,2.21,2.21,0,0,1-1.9.82,2.13,2.13,0,0,1-1.7-.73,2.89,2.89,0,0,1-.63-2,3.13,3.13,0,0,1,.66-2.1,2.22,2.22,0,0,1,1.78-.78A2.34,2.34,0,0,1,107.22,278.17Zm-.55,3.48a3.32,3.32,0,0,0,.32-1.47,2.64,2.64,0,0,0-.23-1.19,1.3,1.3,0,0,0-1.26-.72,1.24,1.24,0,0,0-1.16.61,2.87,2.87,0,0,0-.36,1.48,2.49,2.49,0,0,0,.36,1.39,1.27,1.27,0,0,0,1.15.56A1.2,1.2,0,0,0,106.67,281.64Z"/><path class="cls-1" d="M112.29,281.23a1.26,1.26,0,0,0,.22.67,1.43,1.43,0,0,0,1.18.42,1.76,1.76,0,0,0,.88-.21.7.7,0,0,0,.38-.66.56.56,0,0,0-.3-.51,3.62,3.62,0,0,0-.76-.25l-.71-.18a3.5,3.5,0,0,1-1-.37,1.11,1.11,0,0,1-.58-1,1.5,1.5,0,0,1,.54-1.2,2.18,2.18,0,0,1,1.46-.46,2,2,0,0,1,1.73.69,1.49,1.49,0,0,1,.32.95h-.83a1,1,0,0,0-.21-.54,1.39,1.39,0,0,0-1.07-.34,1.31,1.31,0,0,0-.77.19.59.59,0,0,0-.26.5.61.61,0,0,0,.34.54,2.11,2.11,0,0,0,.59.21l.59.14a4.63,4.63,0,0,1,1.29.44,1.18,1.18,0,0,1,.51,1.06,1.6,1.6,0,0,1-.54,1.21,2.3,2.3,0,0,1-1.63.51,2.21,2.21,0,0,1-1.67-.53,2,2,0,0,1-.53-1.31Z"/><path class="cls-1" d="M119.57,279.71a.48.48,0,0,0,.41-.25.78.78,0,0,0,.06-.34.72.72,0,0,0-.32-.65,1.7,1.7,0,0,0-.91-.2,1.16,1.16,0,0,0-1,.37,1.24,1.24,0,0,0-.21.61h-.82a1.52,1.52,0,0,1,.63-1.35,2.57,2.57,0,0,1,1.4-.38,2.84,2.84,0,0,1,1.5.35,1.19,1.19,0,0,1,.57,1.09v3a.38.38,0,0,0,.06.22.27.27,0,0,0,.24.08h.13l.16,0v.65l-.31.07h-.29a.72.72,0,0,1-.66-.32,1.24,1.24,0,0,1-.15-.48,2.23,2.23,0,0,1-.77.61,2.39,2.39,0,0,1-1.11.26,1.65,1.65,0,0,1-1.19-.44,1.46,1.46,0,0,1-.46-1.1,1.42,1.42,0,0,1,.45-1.13,2.16,2.16,0,0,1,1.19-.49Zm-1.85,2.37a1,1,0,0,0,.66.22,2,2,0,0,0,.9-.21,1.21,1.21,0,0,0,.73-1.17v-.71a1.51,1.51,0,0,1-.41.17,3.49,3.49,0,0,1-.5.1l-.53.07a2.06,2.06,0,0,0-.72.2.78.78,0,0,0-.41.73A.72.72,0,0,0,117.72,282.08Z"/><path class="cls-1" d="M122.76,277.64l1.4,4.26,1.46-4.26h1l-2,5.23h-.94l-1.93-5.23Z"/><path class="cls-1" d="M130.56,277.79a2,2,0,0,1,.79.68,2.34,2.34,0,0,1,.35.92,6.07,6.07,0,0,1,.08,1.15H128a2.26,2.26,0,0,0,.37,1.28,1.24,1.24,0,0,0,1.08.48,1.39,1.39,0,0,0,1.09-.46,1.56,1.56,0,0,0,.32-.61h.86a1.83,1.83,0,0,1-.23.64,2.31,2.31,0,0,1-.43.58,2,2,0,0,1-1,.53,3,3,0,0,1-.71.08,2.18,2.18,0,0,1-1.65-.71,2.77,2.77,0,0,1-.67-2,3,3,0,0,1,.68-2,2.24,2.24,0,0,1,1.78-.79A2.36,2.36,0,0,1,130.56,277.79Zm.31,2.05a2.29,2.29,0,0,0-.25-.91,1.26,1.26,0,0,0-1.2-.63,1.32,1.32,0,0,0-1,.44,1.66,1.66,0,0,0-.43,1.11Z"/><path class="cls-1" d="M136.08,276a1.35,1.35,0,0,1,1.19-.45h.37v.8h-.32q-.41,0-.48.21a4.05,4.05,0,0,0-.08,1.06h.88v.69h-.88v4.51h-.87v-4.51h-.73v-.69h.73v-.82A1.57,1.57,0,0,1,136.08,276Z"/><path class="cls-1" d="M142.24,278.17a2.64,2.64,0,0,1,.69,2,3.42,3.42,0,0,1-.61,2.09,2.21,2.21,0,0,1-1.9.82,2.13,2.13,0,0,1-1.7-.73,2.89,2.89,0,0,1-.63-2,3.13,3.13,0,0,1,.66-2.1,2.22,2.22,0,0,1,1.78-.78A2.34,2.34,0,0,1,142.24,278.17Zm-.55,3.48a3.32,3.32,0,0,0,.32-1.47,2.64,2.64,0,0,0-.23-1.19,1.3,1.3,0,0,0-1.26-.72,1.24,1.24,0,0,0-1.16.61,2.87,2.87,0,0,0-.36,1.48,2.49,2.49,0,0,0,.36,1.39,1.27,1.27,0,0,0,1.15.56A1.2,1.2,0,0,0,141.69,281.64Z"/><path class="cls-1" d="M144,277.64h.83v.9a2,2,0,0,1,.5-.64,1.3,1.3,0,0,1,.92-.38h.08l.2,0v.93l-.14,0h-.14a1.25,1.25,0,0,0-1,.43,1.49,1.49,0,0,0-.36,1v3H144Z"/><path class="cls-1" d="M150.14,275.7H151v7.17h-.88Z"/><path class="cls-1" d="M155.14,279.71a.48.48,0,0,0,.41-.25.78.78,0,0,0,.06-.34.72.72,0,0,0-.32-.65,1.7,1.7,0,0,0-.91-.2,1.16,1.16,0,0,0-1,.37,1.24,1.24,0,0,0-.21.61h-.82a1.52,1.52,0,0,1,.63-1.35,2.57,2.57,0,0,1,1.4-.38,2.84,2.84,0,0,1,1.5.35,1.19,1.19,0,0,1,.57,1.09v3a.38.38,0,0,0,.06.22.27.27,0,0,0,.24.08h.13l.16,0v.65l-.31.07h-.29a.72.72,0,0,1-.66-.32,1.24,1.24,0,0,1-.15-.48,2.23,2.23,0,0,1-.77.61,2.39,2.39,0,0,1-1.11.26,1.65,1.65,0,0,1-1.19-.44,1.46,1.46,0,0,1-.46-1.1,1.42,1.42,0,0,1,.45-1.13,2.16,2.16,0,0,1,1.19-.49Zm-1.85,2.37a1,1,0,0,0,.66.22,2,2,0,0,0,.9-.21,1.21,1.21,0,0,0,.73-1.17v-.71a1.51,1.51,0,0,1-.41.17,3.49,3.49,0,0,1-.5.1l-.53.07a2.06,2.06,0,0,0-.72.2.78.78,0,0,0-.41.73A.72.72,0,0,0,153.29,282.08Z"/><path class="cls-1" d="M158.08,276.18H159v1.46h.83v.72H159v3.41a.37.37,0,0,0,.19.37.79.79,0,0,0,.34.05h.14l.17,0v.7l-.31.06-.35,0a1,1,0,0,1-.83-.31,1.4,1.4,0,0,1-.22-.82v-3.46h-.71v-.72h.71Z"/><path class="cls-1" d="M163.91,277.79a2,2,0,0,1,.79.68,2.34,2.34,0,0,1,.35.92,6.07,6.07,0,0,1,.08,1.15h-3.8a2.26,2.26,0,0,0,.37,1.28,1.24,1.24,0,0,0,1.08.48,1.39,1.39,0,0,0,1.09-.46,1.56,1.56,0,0,0,.32-.61h.86a1.83,1.83,0,0,1-.23.64,2.31,2.31,0,0,1-.43.58,2,2,0,0,1-1,.53,3,3,0,0,1-.71.08,2.18,2.18,0,0,1-1.65-.71,2.77,2.77,0,0,1-.67-2,3,3,0,0,1,.68-2,2.24,2.24,0,0,1,1.78-.79A2.36,2.36,0,0,1,163.91,277.79Zm.31,2.05a2.29,2.29,0,0,0-.25-.91,1.26,1.26,0,0,0-1.2-.63,1.32,1.32,0,0,0-1,.44,1.66,1.66,0,0,0-.43,1.11Z"/><path class="cls-1" d="M166.26,277.64h.83v.9a2,2,0,0,1,.5-.64,1.3,1.3,0,0,1,.92-.38h.08l.2,0v.93l-.14,0h-.14a1.25,1.25,0,0,0-1,.43,1.49,1.49,0,0,0-.36,1v3h-.88Z"/><path class="cls-1" d="M169.23,281.81h1v1.06h-1Z"/><g id="quickmark"><rect x="13" y="35" width="6.03" height="6.03"/><rect x="19.03" y="35" width="6.03" height="6.03"/><rect x="25.07" y="35" width="6.03" height="6.03"/><rect x="31.1" y="35" width="6.03" height="6.03"/><rect x="37.14" y="35" width="6.03" height="6.03"/><rect x="43.17" y="35" width="6.03" height="6.03"/><rect x="49.21" y="35" width="6.03" height="6.03"/><rect x="61.28" y="35" width="6.03" height="6.03"/><rect x="67.31" y="35" width="6.03" height="6.03"/><rect x="73.34" y="35" width="6.03" height="6.03"/><rect x="85.41" y="35" width="6.03" height="6.03"/><rect x="103.52" y="35" width="6.03" height="6.03"/><rect x="109.55" y="35" width="6.03" height="6.03"/><rect x="115.59" y="35" width="6.03" height="6.03"/><rect x="121.62" y="35" width="6.03" height="6.03"/><rect x="127.66" y="35" width="6.03" height="6.03"/><rect x="133.69" y="35" width="6.03" height="6.03"/><rect x="145.76" y="35" width="6.03" height="6.03"/><rect x="151.79" y="35" width="6.03" height="6.03"/><rect x="157.83" y="35" width="6.03" height="6.03"/><rect x="163.86" y="35" width="6.03" height="6.03"/><rect x="169.9" y="35" width="6.03" height="6.03"/><rect x="175.93" y="35" width="6.03" height="6.03"/><rect x="181.97" y="35" width="6.03" height="6.03"/><rect x="13" y="41.03" width="6.03" height="6.03"/><rect x="49.21" y="41.03" width="6.03" height="6.03"/><rect x="61.28" y="41.03" width="6.03" height="6.03"/><rect x="67.31" y="41.03" width="6.03" height="6.03"/><rect x="73.34" y="41.03" width="6.03" height="6.03"/><rect x="79.38" y="41.03" width="6.03" height="6.03"/><rect x="85.41" y="41.03" width="6.03" height="6.03"/><rect x="97.48" y="41.03" width="6.03" height="6.03"/><rect x="103.52" y="41.03" width="6.03" height="6.03"/><rect x="115.59" y="41.03" width="6.03" height="6.03"/><rect x="145.76" y="41.03" width="6.03" height="6.03"/><rect x="181.97" y="41.03" width="6.03" height="6.03"/><rect x="13" y="47.07" width="6.03" height="6.03"/><rect x="25.07" y="47.07" width="6.03" height="6.03"/><rect x="31.1" y="47.07" width="6.03" height="6.03"/><rect x="37.14" y="47.07" width="6.03" height="6.03"/><rect x="49.21" y="47.07" width="6.03" height="6.03"/><rect x="91.45" y="47.07" width="6.03" height="6.03"/><rect x="97.48" y="47.07" width="6.03" height="6.03"/><rect x="103.52" y="47.07" width="6.03" height="6.03"/><rect x="121.62" y="47.07" width="6.03" height="6.03"/><rect x="133.69" y="47.07" width="6.03" height="6.03"/><rect x="145.76" y="47.07" width="6.03" height="6.03"/><rect x="157.83" y="47.07" width="6.03" height="6.03"/><rect x="163.86" y="47.07" width="6.03" height="6.03"/><rect x="169.9" y="47.07" width="6.03" height="6.03"/><rect x="181.97" y="47.07" width="6.03" height="6.03"/><rect x="13" y="53.1" width="6.03" height="6.03"/><rect x="25.07" y="53.1" width="6.03" height="6.03"/><rect x="31.1" y="53.1" width="6.03" height="6.03"/><rect x="37.14" y="53.1" width="6.03" height="6.03"/><rect x="49.21" y="53.1" width="6.03" height="6.03"/><rect x="61.28" y="53.1" width="6.03" height="6.03"/><rect x="73.34" y="53.1" width="6.03" height="6.03"/><rect x="79.38" y="53.1" width="6.03" height="6.03"/><rect x="115.59" y="53.1" width="6.03" height="6.03"/><rect x="133.69" y="53.1" width="6.03" height="6.03"/><rect x="145.76" y="53.1" width="6.03" height="6.03"/><rect x="157.83" y="53.1" width="6.03" height="6.03"/><rect x="163.86" y="53.1" width="6.03" height="6.03"/><rect x="169.9" y="53.1" width="6.03" height="6.03"/><rect x="181.97" y="53.1" width="6.03" height="6.03"/><rect x="13" y="59.14" width="6.03" height="6.03"/><rect x="25.07" y="59.14" width="6.03" height="6.03"/><rect x="31.1" y="59.14" width="6.03" height="6.03"/><rect x="37.14" y="59.14" width="6.03" height="6.03"/><rect x="49.21" y="59.14" width="6.03" height="6.03"/><rect x="73.34" y="59.14" width="6.03" height="6.03"/><rect x="85.41" y="59.14" width="6.03" height="6.03"/><rect x="91.45" y="59.14" width="6.03" height="6.03"/><rect x="127.66" y="59.14" width="6.03" height="6.03"/><rect x="145.76" y="59.14" width="6.03" height="6.03"/><rect x="157.83" y="59.14" width="6.03" height="6.03"/><rect x="163.86" y="59.14" width="6.03" height="6.03"/><rect x="169.9" y="59.14" width="6.03" height="6.03"/><rect x="181.97" y="59.14" width="6.03" height="6.03"/><rect x="13" y="65.17" width="6.03" height="6.03"/><rect x="49.21" y="65.17" width="6.03" height="6.03"/><rect x="67.31" y="65.17" width="6.03" height="6.03"/><rect x="79.38" y="65.17" width="6.03" height="6.03"/><rect x="85.41" y="65.17" width="6.03" height="6.03"/><rect x="97.48" y="65.17" width="6.03" height="6.03"/><rect x="115.59" y="65.17" width="6.03" height="6.03"/><rect x="127.66" y="65.17" width="6.03" height="6.03"/><rect x="145.76" y="65.17" width="6.03" height="6.03"/><rect x="181.97" y="65.17" width="6.03" height="6.03"/><rect x="13" y="71.21" width="6.03" height="6.03"/><rect x="19.03" y="71.21" width="6.03" height="6.03"/><rect x="25.07" y="71.21" width="6.03" height="6.03"/><rect x="31.1" y="71.21" width="6.03" height="6.03"/><rect x="37.14" y="71.21" width="6.03" height="6.03"/><rect x="43.17" y="71.21" width="6.03" height="6.03"/><rect x="49.21" y="71.21" width="6.03" height="6.03"/><rect x="61.28" y="71.21" width="6.03" height="6.03"/><rect x="73.34" y="71.21" width="6.03" height="6.03"/><rect x="85.41" y="71.21" width="6.03" height="6.03"/><rect x="97.48" y="71.21" width="6.03" height="6.03"/><rect x="109.55" y="71.21" width="6.03" height="6.03"/><rect x="121.62" y="71.21" width="6.03" height="6.03"/><rect x="133.69" y="71.21" width="6.03" height="6.03"/><rect x="145.76" y="71.21" width="6.03" height="6.03"/><rect x="151.79" y="71.21" width="6.03" height="6.03"/><rect x="157.83" y="71.21" width="6.03" height="6.03"/><rect x="163.86" y="71.21" width="6.03" height="6.03"/><rect x="169.9" y="71.21" width="6.03" height="6.03"/><rect x="175.93" y="71.21" width="6.03" height="6.03"/><rect x="181.97" y="71.21" width="6.03" height="6.03"/><rect x="61.28" y="77.24" width="6.03" height="6.03"/><rect x="79.38" y="77.24" width="6.03" height="6.03"/><rect x="85.41" y="77.24" width="6.03" height="6.03"/><rect x="91.45" y="77.24" width="6.03" height="6.03"/><rect x="97.48" y="77.24" width="6.03" height="6.03"/><rect x="103.52" y="77.24" width="6.03" height="6.03"/><rect x="109.55" y="77.24" width="6.03" height="6.03"/><rect x="115.59" y="77.24" width="6.03" height="6.03"/><rect x="121.62" y="77.24" width="6.03" height="6.03"/><rect x="127.66" y="77.24" width="6.03" height="6.03"/><rect x="13" y="83.28" width="6.03" height="6.03"/><rect x="25.07" y="83.28" width="6.03" height="6.03"/><rect x="31.1" y="83.28" width="6.03" height="6.03"/><rect x="43.17" y="83.28" width="6.03" height="6.03"/><rect x="49.21" y="83.28" width="6.03" height="6.03"/><rect x="55.24" y="83.28" width="6.03" height="6.03"/><rect x="67.31" y="83.28" width="6.03" height="6.03"/><rect x="79.38" y="83.28" width="6.03" height="6.03"/><rect x="91.45" y="83.28" width="6.03" height="6.03"/><rect x="97.48" y="83.28" width="6.03" height="6.03"/><rect x="103.52" y="83.28" width="6.03" height="6.03"/><rect x="109.55" y="83.28" width="6.03" height="6.03"/><rect x="115.59" y="83.28" width="6.03" height="6.03"/><rect x="121.62" y="83.28" width="6.03" height="6.03"/><rect x="145.76" y="83.28" width="6.03" height="6.03"/><rect x="163.86" y="83.28" width="6.03" height="6.03"/><rect x="175.93" y="83.28" width="6.03" height="6.03"/><rect x="181.97" y="83.28" width="6.03" height="6.03"/><rect x="31.1" y="89.31" width="6.03" height="6.03"/><rect x="37.14" y="89.31" width="6.03" height="6.03"/><rect x="85.41" y="89.31" width="6.03" height="6.03"/><rect x="115.59" y="89.31" width="6.03" height="6.03"/><rect x="121.62" y="89.31" width="6.03" height="6.03"/><rect x="127.66" y="89.31" width="6.03" height="6.03"/><rect x="139.72" y="89.31" width="6.03" height="6.03"/><rect x="145.76" y="89.31" width="6.03" height="6.03"/><rect x="151.79" y="89.31" width="6.03" height="6.03"/><rect x="157.83" y="89.31" width="6.03" height="6.03"/><rect x="181.97" y="89.31" width="6.03" height="6.03"/><rect x="37.14" y="95.34" width="6.03" height="6.03"/><rect x="49.21" y="95.34" width="6.03" height="6.03"/><rect x="55.24" y="95.34" width="6.03" height="6.03"/><rect x="79.38" y="95.34" width="6.03" height="6.03"/><rect x="97.48" y="95.34" width="6.03" height="6.03"/><rect x="109.55" y="95.34" width="6.03" height="6.03"/><rect x="115.59" y="95.34" width="6.03" height="6.03"/><rect x="169.9" y="95.34" width="6.03" height="6.03"/><rect x="175.93" y="95.34" width="6.03" height="6.03"/><rect x="13" y="101.38" width="6.03" height="6.03"/><rect x="19.03" y="101.38" width="6.03" height="6.03"/><rect x="25.07" y="101.38" width="6.03" height="6.03"/><rect x="31.1" y="101.38" width="6.03" height="6.03"/><rect x="37.14" y="101.38" width="6.03" height="6.03"/><rect x="43.17" y="101.38" width="6.03" height="6.03"/><rect x="55.24" y="101.38" width="6.03" height="6.03"/><rect x="61.28" y="101.38" width="6.03" height="6.03"/><rect x="79.38" y="101.38" width="6.03" height="6.03"/><rect x="85.41" y="101.38" width="6.03" height="6.03"/><rect x="91.45" y="101.38" width="6.03" height="6.03"/><rect x="97.48" y="101.38" width="6.03" height="6.03"/><rect x="103.52" y="101.38" width="6.03" height="6.03"/><rect x="121.62" y="101.38" width="6.03" height="6.03"/><rect x="133.69" y="101.38" width="6.03" height="6.03"/><rect x="139.72" y="101.38" width="6.03" height="6.03"/><rect x="145.76" y="101.38" width="6.03" height="6.03"/><rect x="151.79" y="101.38" width="6.03" height="6.03"/><rect x="157.83" y="101.38" width="6.03" height="6.03"/><rect x="163.86" y="101.38" width="6.03" height="6.03"/><rect x="181.97" y="101.38" width="6.03" height="6.03"/><rect x="19.03" y="107.41" width="6.03" height="6.03"/><rect x="31.1" y="107.41" width="6.03" height="6.03"/><rect x="37.14" y="107.41" width="6.03" height="6.03"/><rect x="43.17" y="107.41" width="6.03" height="6.03"/><rect x="49.21" y="107.41" width="6.03" height="6.03"/><rect x="61.28" y="107.41" width="6.03" height="6.03"/><rect x="73.34" y="107.41" width="6.03" height="6.03"/><rect x="85.41" y="107.41" width="6.03" height="6.03"/><rect x="103.52" y="107.41" width="6.03" height="6.03"/><rect x="115.59" y="107.41" width="6.03" height="6.03"/><rect x="133.69" y="107.41" width="6.03" height="6.03"/><rect x="163.86" y="107.41" width="6.03" height="6.03"/><rect x="169.9" y="107.41" width="6.03" height="6.03"/><rect x="13" y="113.45" width="6.03" height="6.03"/><rect x="19.03" y="113.45" width="6.03" height="6.03"/><rect x="25.07" y="113.45" width="6.03" height="6.03"/><rect x="31.1" y="113.45" width="6.03" height="6.03"/><rect x="37.14" y="113.45" width="6.03" height="6.03"/><rect x="55.24" y="113.45" width="6.03" height="6.03"/><rect x="61.28" y="113.45" width="6.03" height="6.03"/><rect x="67.31" y="113.45" width="6.03" height="6.03"/><rect x="73.34" y="113.45" width="6.03" height="6.03"/><rect x="91.45" y="113.45" width="6.03" height="6.03"/><rect x="103.52" y="113.45" width="6.03" height="6.03"/><rect x="109.55" y="113.45" width="6.03" height="6.03"/><rect x="127.66" y="113.45" width="6.03" height="6.03"/><rect x="133.69" y="113.45" width="6.03" height="6.03"/><rect x="145.76" y="113.45" width="6.03" height="6.03"/><rect x="175.93" y="113.45" width="6.03" height="6.03"/><rect x="181.97" y="113.45" width="6.03" height="6.03"/><rect x="19.03" y="119.48" width="6.03" height="6.03"/><rect x="31.1" y="119.48" width="6.03" height="6.03"/><rect x="37.14" y="119.48" width="6.03" height="6.03"/><rect x="49.21" y="119.48" width="6.03" height="6.03"/><rect x="55.24" y="119.48" width="6.03" height="6.03"/><rect x="61.28" y="119.48" width="6.03" height="6.03"/><rect x="67.31" y="119.48" width="6.03" height="6.03"/><rect x="73.34" y="119.48" width="6.03" height="6.03"/><rect x="97.48" y="119.48" width="6.03" height="6.03"/><rect x="109.55" y="119.48" width="6.03" height="6.03"/><rect x="121.62" y="119.48" width="6.03" height="6.03"/><rect x="127.66" y="119.48" width="6.03" height="6.03"/><rect x="139.72" y="119.48" width="6.03" height="6.03"/><rect x="151.79" y="119.48" width="6.03" height="6.03"/><rect x="163.86" y="119.48" width="6.03" height="6.03"/><rect x="169.9" y="119.48" width="6.03" height="6.03"/><rect x="175.93" y="119.48" width="6.03" height="6.03"/><rect x="181.97" y="119.48" width="6.03" height="6.03"/><rect x="13" y="125.52" width="6.03" height="6.03"/><rect x="25.07" y="125.52" width="6.03" height="6.03"/><rect x="31.1" y="125.52" width="6.03" height="6.03"/><rect x="67.31" y="125.52" width="6.03" height="6.03"/><rect x="73.34" y="125.52" width="6.03" height="6.03"/><rect x="79.38" y="125.52" width="6.03" height="6.03"/><rect x="91.45" y="125.52" width="6.03" height="6.03"/><rect x="139.72" y="125.52" width="6.03" height="6.03"/><rect x="145.76" y="125.52" width="6.03" height="6.03"/><rect x="175.93" y="125.52" width="6.03" height="6.03"/><rect x="13" y="131.55" width="6.03" height="6.03"/><rect x="25.07" y="131.55" width="6.03" height="6.03"/><rect x="49.21" y="131.55" width="6.03" height="6.03"/><rect x="55.24" y="131.55" width="6.03" height="6.03"/><rect x="61.28" y="131.55" width="6.03" height="6.03"/><rect x="85.41" y="131.55" width="6.03" height="6.03"/><rect x="109.55" y="131.55" width="6.03" height="6.03"/><rect x="121.62" y="131.55" width="6.03" height="6.03"/><rect x="139.72" y="131.55" width="6.03" height="6.03"/><rect x="151.79" y="131.55" width="6.03" height="6.03"/><rect x="157.83" y="131.55" width="6.03" height="6.03"/><rect x="175.93" y="131.55" width="6.03" height="6.03"/><rect x="25.07" y="137.59" width="6.03" height="6.03"/><rect x="31.1" y="137.59" width="6.03" height="6.03"/><rect x="43.17" y="137.59" width="6.03" height="6.03"/><rect x="61.28" y="137.59" width="6.03" height="6.03"/><rect x="73.34" y="137.59" width="6.03" height="6.03"/><rect x="79.38" y="137.59" width="6.03" height="6.03"/><rect x="85.41" y="137.59" width="6.03" height="6.03"/><rect x="91.45" y="137.59" width="6.03" height="6.03"/><rect x="103.52" y="137.59" width="6.03" height="6.03"/><rect x="151.79" y="137.59" width="6.03" height="6.03"/><rect x="169.9" y="137.59" width="6.03" height="6.03"/><rect x="175.93" y="137.59" width="6.03" height="6.03"/><rect x="19.03" y="143.62" width="6.03" height="6.03"/><rect x="25.07" y="143.62" width="6.03" height="6.03"/><rect x="37.14" y="143.62" width="6.03" height="6.03"/><rect x="43.17" y="143.62" width="6.03" height="6.03"/><rect x="49.21" y="143.62" width="6.03" height="6.03"/><rect x="61.28" y="143.62" width="6.03" height="6.03"/><rect x="67.31" y="143.62" width="6.03" height="6.03"/><rect x="79.38" y="143.62" width="6.03" height="6.03"/><rect x="103.52" y="143.62" width="6.03" height="6.03"/><rect x="109.55" y="143.62" width="6.03" height="6.03"/><rect x="139.72" y="143.62" width="6.03" height="6.03"/><rect x="145.76" y="143.62" width="6.03" height="6.03"/><rect x="151.79" y="143.62" width="6.03" height="6.03"/><rect x="163.86" y="143.62" width="6.03" height="6.03"/><rect x="169.9" y="143.62" width="6.03" height="6.03"/><rect x="13" y="149.66" width="6.03" height="6.03"/><rect x="19.03" y="149.66" width="6.03" height="6.03"/><rect x="25.07" y="149.66" width="6.03" height="6.03"/><rect x="31.1" y="149.66" width="6.03" height="6.03"/><rect x="43.17" y="149.66" width="6.03" height="6.03"/><rect x="55.24" y="149.66" width="6.03" height="6.03"/><rect x="73.34" y="149.66" width="6.03" height="6.03"/><rect x="103.52" y="149.66" width="6.03" height="6.03"/><rect x="109.55" y="149.66" width="6.03" height="6.03"/><rect x="115.59" y="149.66" width="6.03" height="6.03"/><rect x="121.62" y="149.66" width="6.03" height="6.03"/><rect x="133.69" y="149.66" width="6.03" height="6.03"/><rect x="139.72" y="149.66" width="6.03" height="6.03"/><rect x="151.79" y="149.66" width="6.03" height="6.03"/><rect x="157.83" y="149.66" width="6.03" height="6.03"/><rect x="169.9" y="149.66" width="6.03" height="6.03"/><rect x="13" y="155.69" width="6.03" height="6.03"/><rect x="25.07" y="155.69" width="6.03" height="6.03"/><rect x="43.17" y="155.69" width="6.03" height="6.03"/><rect x="49.21" y="155.69" width="6.03" height="6.03"/><rect x="55.24" y="155.69" width="6.03" height="6.03"/><rect x="61.28" y="155.69" width="6.03" height="6.03"/><rect x="85.41" y="155.69" width="6.03" height="6.03"/><rect x="91.45" y="155.69" width="6.03" height="6.03"/><rect x="103.52" y="155.69" width="6.03" height="6.03"/><rect x="109.55" y="155.69" width="6.03" height="6.03"/><rect x="115.59" y="155.69" width="6.03" height="6.03"/><rect x="121.62" y="155.69" width="6.03" height="6.03"/><rect x="127.66" y="155.69" width="6.03" height="6.03"/><rect x="133.69" y="155.69" width="6.03" height="6.03"/><rect x="139.72" y="155.69" width="6.03" height="6.03"/><rect x="145.76" y="155.69" width="6.03" height="6.03"/><rect x="151.79" y="155.69" width="6.03" height="6.03"/><rect x="157.83" y="155.69" width="6.03" height="6.03"/><rect x="163.86" y="155.69" width="6.03" height="6.03"/><rect x="169.9" y="155.69" width="6.03" height="6.03"/><rect x="61.28" y="161.72" width="6.03" height="6.03"/><rect x="67.31" y="161.72" width="6.03" height="6.03"/><rect x="73.34" y="161.72" width="6.03" height="6.03"/><rect x="79.38" y="161.72" width="6.03" height="6.03"/><rect x="91.45" y="161.72" width="6.03" height="6.03"/><rect x="97.48" y="161.72" width="6.03" height="6.03"/><rect x="109.55" y="161.72" width="6.03" height="6.03"/><rect x="121.62" y="161.72" width="6.03" height="6.03"/><rect x="127.66" y="161.72" width="6.03" height="6.03"/><rect x="133.69" y="161.72" width="6.03" height="6.03"/><rect x="157.83" y="161.72" width="6.03" height="6.03"/><rect x="163.86" y="161.72" width="6.03" height="6.03"/><rect x="169.9" y="161.72" width="6.03" height="6.03"/><rect x="175.93" y="161.72" width="6.03" height="6.03"/><rect x="181.97" y="161.72" width="6.03" height="6.03"/><rect x="13" y="167.76" width="6.03" height="6.03"/><rect x="19.03" y="167.76" width="6.03" height="6.03"/><rect x="25.07" y="167.76" width="6.03" height="6.03"/><rect x="31.1" y="167.76" width="6.03" height="6.03"/><rect x="37.14" y="167.76" width="6.03" height="6.03"/><rect x="43.17" y="167.76" width="6.03" height="6.03"/><rect x="49.21" y="167.76" width="6.03" height="6.03"/><rect x="61.28" y="167.76" width="6.03" height="6.03"/><rect x="73.34" y="167.76" width="6.03" height="6.03"/><rect x="79.38" y="167.76" width="6.03" height="6.03"/><rect x="91.45" y="167.76" width="6.03" height="6.03"/><rect x="115.59" y="167.76" width="6.03" height="6.03"/><rect x="121.62" y="167.76" width="6.03" height="6.03"/><rect x="127.66" y="167.76" width="6.03" height="6.03"/><rect x="133.69" y="167.76" width="6.03" height="6.03"/><rect x="145.76" y="167.76" width="6.03" height="6.03"/><rect x="157.83" y="167.76" width="6.03" height="6.03"/><rect x="163.86" y="167.76" width="6.03" height="6.03"/><rect x="175.93" y="167.76" width="6.03" height="6.03"/><rect x="13" y="173.79" width="6.03" height="6.03"/><rect x="49.21" y="173.79" width="6.03" height="6.03"/><rect x="61.28" y="173.79" width="6.03" height="6.03"/><rect x="67.31" y="173.79" width="6.03" height="6.03"/><rect x="73.34" y="173.79" width="6.03" height="6.03"/><rect x="85.41" y="173.79" width="6.03" height="6.03"/><rect x="103.52" y="173.79" width="6.03" height="6.03"/><rect x="127.66" y="173.79" width="6.03" height="6.03"/><rect x="133.69" y="173.79" width="6.03" height="6.03"/><rect x="157.83" y="173.79" width="6.03" height="6.03"/><rect x="175.93" y="173.79" width="6.03" height="6.03"/><rect x="13" y="179.83" width="6.03" height="6.03"/><rect x="25.07" y="179.83" width="6.03" height="6.03"/><rect x="31.1" y="179.83" width="6.03" height="6.03"/><rect x="37.14" y="179.83" width="6.03" height="6.03"/><rect x="49.21" y="179.83" width="6.03" height="6.03"/><rect x="67.31" y="179.83" width="6.03" height="6.03"/><rect x="73.34" y="179.83" width="6.03" height="6.03"/><rect x="79.38" y="179.83" width="6.03" height="6.03"/><rect x="85.41" y="179.83" width="6.03" height="6.03"/><rect x="97.48" y="179.83" width="6.03" height="6.03"/><rect x="115.59" y="179.83" width="6.03" height="6.03"/><rect x="133.69" y="179.83" width="6.03" height="6.03"/><rect x="139.72" y="179.83" width="6.03" height="6.03"/><rect x="145.76" y="179.83" width="6.03" height="6.03"/><rect x="151.79" y="179.83" width="6.03" height="6.03"/><rect x="157.83" y="179.83" width="6.03" height="6.03"/><rect x="163.86" y="179.83" width="6.03" height="6.03"/><rect x="169.9" y="179.83" width="6.03" height="6.03"/><rect x="175.93" y="179.83" width="6.03" height="6.03"/><rect x="13" y="185.86" width="6.03" height="6.03"/><rect x="25.07" y="185.86" width="6.03" height="6.03"/><rect x="31.1" y="185.86" width="6.03" height="6.03"/><rect x="37.14" y="185.86" width="6.03" height="6.03"/><rect x="49.21" y="185.86" width="6.03" height="6.03"/><rect x="61.28" y="185.86" width="6.03" height="6.03"/><rect x="67.31" y="185.86" width="6.03" height="6.03"/><rect x="97.48" y="185.86" width="6.03" height="6.03"/><rect x="103.52" y="185.86" width="6.03" height="6.03"/><rect x="139.72" y="185.86" width="6.03" height="6.03"/><rect x="151.79" y="185.86" width="6.03" height="6.03"/><rect x="157.83" y="185.86" width="6.03" height="6.03"/><rect x="163.86" y="185.86" width="6.03" height="6.03"/><rect x="169.9" y="185.86" width="6.03" height="6.03"/><rect x="181.97" y="185.86" width="6.03" height="6.03"/><rect x="13" y="191.9" width="6.03" height="6.03"/><rect x="25.07" y="191.9" width="6.03" height="6.03"/><rect x="31.1" y="191.9" width="6.03" height="6.03"/><rect x="37.14" y="191.9" width="6.03" height="6.03"/><rect x="49.21" y="191.9" width="6.03" height="6.03"/><rect x="61.28" y="191.9" width="6.03" height="6.03"/><rect x="67.31" y="191.9" width="6.03" height="6.03"/><rect x="79.38" y="191.9" width="6.03" height="6.03"/><rect x="91.45" y="191.9" width="6.03" height="6.03"/><rect x="127.66" y="191.9" width="6.03" height="6.03"/><rect x="151.79" y="191.9" width="6.03" height="6.03"/><rect x="169.9" y="191.9" width="6.03" height="6.03"/><rect x="181.97" y="191.9" width="6.03" height="6.03"/><rect x="13" y="197.93" width="6.03" height="6.03"/><rect x="49.21" y="197.93" width="6.03" height="6.03"/><rect x="67.31" y="197.93" width="6.03" height="6.03"/><rect x="73.34" y="197.93" width="6.03" height="6.03"/><rect x="79.38" y="197.93" width="6.03" height="6.03"/><rect x="85.41" y="197.93" width="6.03" height="6.03"/><rect x="103.52" y="197.93" width="6.03" height="6.03"/><rect x="127.66" y="197.93" width="6.03" height="6.03"/><rect x="133.69" y="197.93" width="6.03" height="6.03"/><rect x="139.72" y="197.93" width="6.03" height="6.03"/><rect x="151.79" y="197.93" width="6.03" height="6.03"/><rect x="157.83" y="197.93" width="6.03" height="6.03"/><rect x="163.86" y="197.93" width="6.03" height="6.03"/><rect x="175.93" y="197.93" width="6.03" height="6.03"/><rect x="13" y="203.97" width="6.03" height="6.03"/><rect x="19.03" y="203.97" width="6.03" height="6.03"/><rect x="25.07" y="203.97" width="6.03" height="6.03"/><rect x="31.1" y="203.97" width="6.03" height="6.03"/><rect x="37.14" y="203.97" width="6.03" height="6.03"/><rect x="43.17" y="203.97" width="6.03" height="6.03"/><rect x="49.21" y="203.97" width="6.03" height="6.03"/><rect x="61.28" y="203.97" width="6.03" height="6.03"/><rect x="67.31" y="203.97" width="6.03" height="6.03"/><rect x="73.34" y="203.97" width="6.03" height="6.03"/><rect x="85.41" y="203.97" width="6.03" height="6.03"/><rect x="121.62" y="203.97" width="6.03" height="6.03"/><rect x="133.69" y="203.97" width="6.03" height="6.03"/><rect x="139.72" y="203.97" width="6.03" height="6.03"/><rect x="151.79" y="203.97" width="6.03" height="6.03"/><rect x="157.83" y="203.97" width="6.03" height="6.03"/><rect x="175.93" y="203.97" width="6.03" height="6.03"/></g></svg>